<?xml version="1.0" encoding="UTF-8" standalone="no"?>
<!-- Created with Inkscape (http://www.inkscape.org/) -->

<svg
   xmlns:dc="http://purl.org/dc/elements/1.1/"
   xmlns:cc="http://creativecommons.org/ns#"
   xmlns:rdf="http://www.w3.org/1999/02/22-rdf-syntax-ns#"
   xmlns:svg="http://www.w3.org/2000/svg"
   xmlns="http://www.w3.org/2000/svg"
   xmlns:sodipodi="http://sodipodi.sourceforge.net/DTD/sodipodi-0.dtd"
   xmlns:inkscape="http://www.inkscape.org/namespaces/inkscape"
   width="88.885277mm"
   height="122.23019mm"
   viewBox="0 0 88.885277 122.2302"
   version="1.1"
   id="svg8"
   inkscape:version="0.92.2 (5c3e80d, 2017-08-06)"
   sodipodi:docname="rabbit_head.svg">
  <defs
     id="defs2" />
  <sodipodi:namedview
     id="base"
     pagecolor="#ffffff"
     bordercolor="#666666"
     borderopacity="1.0"
     inkscape:pageopacity="0.0"
     inkscape:pageshadow="2"
     inkscape:zoom="1.4"
     inkscape:cx="543.90116"
     inkscape:cy="127.11593"
     inkscape:document-units="mm"
     inkscape:current-layer="layer1"
     showgrid="false"
     inkscape:window-width="2560"
     inkscape:window-height="1329"
     inkscape:window-x="0"
     inkscape:window-y="0"
     inkscape:window-maximized="1" />
  <metadata
     id="metadata5">
    <rdf:RDF>
      <cc:Work
         rdf:about="">
        <dc:format>image/svg+xml</dc:format>
        <dc:type
           rdf:resource="http://purl.org/dc/dcmitype/StillImage" />
        <dc:title></dc:title>
      </cc:Work>
    </rdf:RDF>
  </metadata>
  <g
     inkscape:label="Layer 1"
     inkscape:groupmode="layer"
     id="layer1"
     transform="translate(-99.01675,-48.244381)">
    <path
       style="fill:#000000;stroke-width:0.26458332"
       d="m 123.39435,86.884322 c -0.0746,0.335741 1.26512,0.86485 1.79467,0.66164 0.43723,-0.16778 0.52456,-1.65681 0.13345,-2.27529 -0.20775,-0.3285 -0.96684,0.356298 -1.58025,0.907708 M 123.4653,85.751 c 0.83667,-1.230456 2.15281,-2.339338 2.58895,-2.339338 0.32218,0 0.35681,0.42 0.21274,2.57969 -0.17041,2.55424 0.0715,4.07874 0.89003,5.6081 0.27938,0.52204 0.31811,0.5256 0.98241,0.0903 0.67079,-0.43952 0.68348,-0.43753 0.4224,0.0661 -0.14805,0.28561 -0.3476,0.95418 -0.44346,1.48573 -0.10647,0.59045 -0.41611,1.12491 -0.79589,1.37375 -0.61412,0.40239 -0.62319,0.39393 -0.75269,-0.70187 -0.0721,-0.61004 -0.44398,-1.78614 -0.82643,-2.61356 -0.38245,-0.82742 -0.69536,-1.80969 -0.69536,-2.18281 0,-0.59586 -0.11006,-0.67842 -0.90446,-0.67842 -0.74254,0 -1.00363,0.16045 -1.45835,0.89621 -0.30464,0.49292 -0.4839,1.07861 -0.39835,1.30155 0.0855,0.22293 -0.0328,0.69274 -0.26296,1.04404 -0.33712,0.51451 -0.3698,0.89167 -0.16806,1.9396 0.31417,1.6319 0.93602,3.39354 1.46397,4.14729 0.22291,0.31825 0.40529,0.77569 0.40529,1.01654 0,0.24084 0.1786,0.58611 0.39688,0.76727 0.21828,0.18116 0.39739,0.523158 0.39802,0.759998 0.002,0.71295 2.14668,2.81293 3.76985,3.69109 1.57145,0.85018 2.31442,0.86579 2.31442,0.0486 0,-0.25891 0.28243,-1.3475 0.62762,-2.41909 1.39236,-4.322328 1.812,-7.191738 1.09217,-7.467968 -0.21828,-0.0838 -0.39687,-0.28608 -0.39687,-0.44959 0,-0.16352 -0.24154,-0.60437 -0.53676,-0.97967 -0.35963,-0.45721 -0.449,-0.77013 -0.27083,-0.9483 0.3772,-0.3772 1.29239,0.51563 1.56389,1.52569 0.21206,0.78896 0.22502,0.77258 0.40167,-0.50765 0.24159,-1.75081 -0.24016,-5.3775 -0.79588,-5.99156 -0.46936,-0.51864 -1.68501,-0.56809 -1.68501,-0.0686 0,0.48146 -0.71308,0.98072 -0.92077,0.64468 -0.2288,-0.37021 -0.64706,-0.095 -0.93308,0.61386 -0.19326,0.47897 -0.23191,0.41716 -0.24604,-0.39352 -0.0191,-1.09594 0.1945,-1.27885 2.87377,-2.46067 1.81146,-0.79902 2.45869,-0.72517 2.61239,0.29811 0.0772,0.51407 0.10627,0.51199 1.30161,-0.0932 0.8117,-0.41094 1.68142,-0.61897 2.58764,-0.61897 1.35147,0 1.95152,0.274 4.64366,2.12044 0.37091,0.2544 1.28735,0.77315 2.03653,1.15279 1.48023,0.75009 1.83341,0.61556 1.51291,-0.57629 -0.85913,-3.19488 -0.7153,-12.543334 0.26013,-16.908693 0.38441,-1.720325 0.80646,-4.037156 1.58831,-8.718881 0.56254,-3.368498 3.28362,-8.501789 5.74896,-10.845351 1.28995,-1.226228 3.96721,-2.528585 5.50098,-2.67596 1.99697,-0.191885 2.4744,0.24742 3.81599,3.511316 0.6318,1.537082 0.67587,3.34097 0.15766,6.452648 -0.70108,4.209696 -0.47699,19.590585 0.38977,26.752561 0.10251,0.84707 0.55729,3.67852 1.10492,6.87917 l 0.43006,2.51354 1.4779,1.38077 c 0.81285,0.75942 1.83899,1.5176 2.28032,1.68484 1.90573,0.72215 4.57127,1.82891 5.35671,2.22415 0.94446,0.475248 3.5155,2.852868 3.5155,3.251018 0,0.13983 0.48132,0.71614 1.0696,1.28069 0.92637,0.889 3.95716,4.75773 4.95301,6.3224 0.62153,0.97654 1.38572,2.81476 1.38572,3.33328 0,0.28357 0.23112,1.20165 0.5136,2.04017 0.64229,1.90661 0.70285,3.69116 0.19461,5.73476 -0.21714,0.87313 -0.53396,2.48047 -0.70404,3.57188 -0.44101,2.82998 -0.78205,4.20026 -1.3764,5.53043 -0.28626,0.64064 -0.46528,1.37588 -0.39782,1.63385 0.0883,0.33751 0.009,0.42529 -0.28387,0.31304 -0.32859,-0.12609 -0.37154,-0.0166 -0.22403,0.57113 0.12701,0.50606 0.0924,0.67145 -0.11384,0.54399 -0.27306,-0.16877 -0.87987,0.43948 -1.06233,1.06485 -0.0425,0.14552 -0.41374,0.83537 -0.82507,1.533 -0.41134,0.69762 -0.74789,1.42902 -0.74789,1.62533 0,0.19631 -0.17351,0.42351 -0.38558,0.50489 -0.21206,0.0814 -0.70692,0.65701 -1.09969,1.27919 -0.39276,0.62217 -0.84433,1.26311 -1.00348,1.4243 -0.83686,0.84759 -2.13206,2.61653 -2.06875,2.82543 0.04,0.13195 -0.0327,0.17477 -0.16146,0.0952 -0.12879,-0.0796 -0.77677,0.41757 -1.43996,1.10481 -1.53911,1.59495 -3.32024,3.23528 -4.16293,3.83384 -4.39777,3.12376 -5.89798,4.06253 -7.88779,4.93586 -1.75307,0.76943 -5.97959,1.8135 -7.45494,1.84158 -3.3754,0.0642 -8.75724,0.36723 -10.58333,0.59583 -1.23693,0.15484 -3.26099,0.33867 -4.49792,0.40851 -1.23693,0.0698 -2.72521,0.20777 -3.30729,0.30652 -0.58209,0.0987 -2.9005,0.0996 -5.15203,0.002 l 4e-5,8e-5 c -2.25153,-0.0977 -4.51372,-0.29714 -5.02708,-0.44322 -0.51336,-0.14609 -1.76682,-0.41072 -2.78547,-0.58808 -1.90251,-0.33123 -4.84339,-1.2626 -6.48229,-2.05292 -1.37336,-0.66227 -3.13,-2.13292 -3.32659,-2.785 -0.0948,-0.31459 -0.44362,-0.86964 -0.77507,-1.23344 -0.33144,-0.3638 -0.87021,-1.19724 -1.19727,-1.85208 -0.32705,-0.65485 -0.81982,-1.47893 -1.09505,-1.8313 -0.54803,-0.70163 -2.86644,-5.44444 -2.86644,-5.86392 0,-0.1435 -0.16824,-0.5246 -0.37386,-0.8469 -1.35225,-2.11954 -1.81314,-14.63739 -0.7522,-20.42976 0.31985,-1.74625 0.66197,-4.04196 0.76028,-5.10157 0.0983,-1.05962 0.28035,-1.98938 0.40455,-2.06614 0.1242,-0.0768 0.22582,-0.38361 0.22582,-0.68189 0,-0.78422 3.4162,-10.78263 3.95773,-11.583378 0.25121,-0.37144 0.8973,-1.36575 1.43575,-2.20957 1.24411,-1.94968 4.26915,-4.88538 5.90988,-5.73535 0.69539,-0.36024 1.35312,-0.77696 1.46162,-0.92604 0.25417,-0.34921 -0.0207,-3.72453 -0.4921,-6.04305 -0.47796,-2.35077 -0.46585,-4.860478 0.0302,-6.266551 0.46137,-1.307656 0.52307,-3.767746 0.11368,-4.532691 -0.32534,-0.607909 -2.03773,-1.406617 -3.57113,-1.665684 -1.0219,-0.172651 -1.10169,-0.128371 -2.92172,1.621377 -3.15162,3.029929 -3.66381,3.8389 -6.83449,10.794709 -0.53067,1.16416 -1.25726,2.71386 -1.61466,3.44377 -0.35739,0.72992 -0.6498,1.43086 -0.6498,1.55765 0,0.48207 -2.36095,3.78796 -3.00802,4.21194 -1.605315,1.05184 -1.898974,0.3906 -1.85915,-4.18628 0.04378,-5.03155 0.5367,-8.262987 1.87155,-12.269345 1.93596,-5.810499 2.45277,-6.791106 5.24457,-9.951244 1.92479,-2.178727 2.63914,-2.641312 6.25559,-4.050854 3.45676,-1.347302 4.63562,-1.62846 6.84129,-1.631646 2.62068,-0.0038 4.51217,0.81426 6.58226,2.846754 3.36454,3.303421 4.91034,7.473688 5.02147,13.546961 0.004,0.218281 0.0265,1.361143 0.0501,2.539695 0.0509,2.548949 -0.6579,4.399259 -1.40073,3.656429 -0.0846,-0.0846 0.0212,-0.57281 0.23512,-1.08486 0.31211,-0.74699 0.35483,-1.697057 0.21613,-4.807062 -0.0951,-2.131843 -0.34052,-4.649984 -0.54543,-5.595869 -0.57627,-2.660106 -2.24728,-5.764876 -4.0182,-7.46591 -1.99009,-1.911561 -3.18724,-2.489887 -5.62687,-2.71828 -2.29168,-0.214542 -3.58334,0.103156 -8.05445,1.981077 -2.41513,1.014381 -2.82133,1.293663 -4.65849,3.202883 -2.54071,2.64037 -3.8964,5.273992 -5.57029,10.821063 -0.28543,0.945886 -0.6308,2.085433 -0.76749,2.532327 -0.13669,0.446891 -0.24852,1.340651 -0.24852,1.986121 0,0.64547 -0.12142,1.58952 -0.26982,2.09788 -0.33986,1.16422 -0.38153,7.39024 -0.0517,7.7201 0.25088,0.25088 2.70274,-2.24264 2.70274,-2.74868 0,-0.1437 0.22076,-0.57731 0.49058,-0.96357 0.26982,-0.38627 0.57361,-1.04512 0.67509,-1.46412 0.10147,-0.41899 0.65462,-1.75602 1.2292,-2.97117 0.57459,-1.21514 1.04471,-2.2827 1.04471,-2.37234 0,-0.0896 0.2127,-0.47902 0.47267,-0.86529 0.25996,-0.386262 0.6351,-1.178549 0.83363,-1.760633 0.19853,-0.582083 0.64067,-1.502452 0.98254,-2.045263 0.34187,-0.542811 0.62405,-1.078593 0.62706,-1.190625 0.0182,-0.677193 5.5293,-5.36307 6.3075,-5.36307 0.78534,0 3.6679,1.112311 4.40434,1.69953 1.06327,0.847817 1.21841,3.058239 0.40307,5.74258 l -0.58255,1.91793 0.60008,4.059271 0.60008,4.05927 0.74607,-1.19867 c 0.3926,-0.630767 0.51187,-1.191131 0.74453,-1.316036 m 15.76175,69.569004 c 2.17268,-0.21576 4.24797,-0.44672 4.61177,-0.51323 0.36381,-0.0665 2.4474,-0.19107 4.63021,-0.27677 6.76698,-0.2657 11.3804,-0.96416 13.35754,-2.02229 0.50717,-0.27143 1.00748,-0.49351 1.1118,-0.49351 0.10433,0 0.97868,-0.56554 1.943,-1.25677 0.96433,-0.69122 2.4256,-1.66469 3.24728,-2.16327 0.82168,-0.49857 2.05747,-1.49423 2.74621,-2.21257 0.68874,-0.71835 1.59993,-1.56258 2.02485,-1.87608 0.42493,-0.3135 1.40998,-1.34191 2.189,-2.28534 0.77902,-0.94344 1.49347,-1.77487 1.58766,-1.84763 0.58423,-0.4513 2.22724,-2.94768 3.41562,-5.18971 0.7625,-1.43852 1.52952,-2.7941 1.70449,-3.01238 1.39812,-1.74417 3.44025,-10.23394 3.43672,-14.2875 -0.002,-1.83385 -0.59036,-4.76217 -1.2767,-6.35 -0.44857,-1.03772 -3.19592,-5.048 -4.25963,-6.21771 -0.52933,-0.58208 -1.61847,-1.86544 -2.42031,-2.85191 -1.34383,-1.65326 -3.1253,-3.10121 -3.81553,-3.10121 -0.15742,0 -0.90393,-0.288398 -1.6589,-0.640888 -0.75498,-0.35249 -1.86248,-0.76943 -2.46111,-0.92653 -0.83006,-0.21784 -1.70071,-0.88221 -3.6677,-2.7987 -1.4186,-1.38218 -2.68498,-2.51305 -2.81417,-2.51305 -0.1292,0 -0.23491,-0.17859 -0.23491,-0.39687 0,-0.47257 0.82237,-0.52701 1.26559,-0.0838 0.56308,0.56308 0.64318,0.0173 0.2141,-1.45867 -0.23175,-0.79717 -0.42136,-1.91272 -0.42136,-2.47899 0,-0.56627 -0.22827,-2.15529 -0.50728,-3.53115 -0.70112,-3.457464 -0.84738,-5.932353 -0.94526,-15.995319 -0.0661,-6.79741 -0.001,-9.136462 0.29246,-10.560773 0.79528,-3.855367 0.42143,-6.94521 -1.08887,-8.999514 -0.48494,-0.659598 -0.63464,-0.706243 -1.79086,-0.557995 -1.15908,0.148614 -2.92019,1.003326 -4.76357,2.311883 -0.40348,0.286415 -0.98502,1.016743 -1.29231,1.622951 -0.3073,0.606209 -0.63311,1.161729 -0.72402,1.234489 -0.36195,0.289682 -2.14487,3.410399 -2.14487,3.754249 0,0.201958 -0.23812,0.834265 -0.52917,1.405126 -0.29104,0.570862 -0.52916,1.268766 -0.52916,1.550898 0,0.590445 -0.65203,4.060393 -1.20009,6.386602 -0.20571,0.873125 -0.44657,2.06375 -0.53524,2.645834 -0.0887,0.582083 -0.33575,1.89177 -0.54906,2.910416 -0.51006,2.435844 -0.55314,10.959483 -0.0686,13.579313 0.32354,1.74939 0.7298,2.33417 1.14965,1.65485 0.32648,-0.52827 3.63593,-1.40657 4.80391,-1.27492 1.77102,0.19961 1.9557,0.47104 1.9557,2.87419 0,1.59396 0.0857,2.08428 0.36448,2.08428 0.20046,0 0.51921,-0.18645 0.70833,-0.41433 0.66916,-0.80628 1.85817,-1.25159 2.46895,-0.92468 0.75447,0.40383 3.71218,4.91479 4.23803,6.46366 0.52644,1.5506 0.55034,5.267238 0.0478,7.443048 -0.20164,0.87313 -0.44239,2.24235 -0.53499,3.04271 -0.19771,1.70872 -0.67446,3.744 -0.95018,4.05633 -0.31796,0.3602 -2.26067,-0.79108 -3.1485,-1.86584 -0.89697,-1.08583 -2.18646,-3.58353 -2.67003,-5.17179 -0.21082,-0.69245 -0.68063,-1.27662 -1.53821,-1.91267 -0.67908,-0.50366 -1.77282,-1.42426 -2.43053,-2.04578 -0.65771,-0.621518 -1.62674,-1.507828 -2.15339,-1.969578 -1.55219,-1.36089 -2.86848,-4.9011 -2.86848,-7.71487 0,-0.64953 -0.15579,-0.92063 -0.66146,-1.15102 -0.3638,-0.16576 -0.66146,-0.39933 -0.66146,-0.51904 0,-0.11971 -0.62507,-0.53333 -1.38906,-0.91917 -0.76398,-0.38582 -1.86531,-1.01655 -2.44739,-1.4016 -1.34909,-0.89244 -2.1897,-1.2749 -3.13379,-1.42582 -0.83673,-0.13376 -3.31433,0.67532 -3.6726,1.19931 -0.12648,0.18498 -0.14759,0.99118 -0.0469,1.79154 0.23111,1.83734 0.22055,2.03809 -0.25071,4.7625 -0.21396,1.23693 -0.52895,3.14193 -0.69999,4.23334 -0.17103,1.0914 -0.6656,2.936868 -1.09905,4.101038 -1.10493,2.9677 -1.27133,3.36137 -1.70542,4.0347 l -0.38367,0.59511 -0.99055,-0.65551 c -0.5448,-0.36053 -1.38004,-0.73341 -1.85609,-0.82862 -1.37697,-0.2754 -2.95473,-2.82177 -6.41642,-10.355578 -0.48477,-1.05502 -0.91196,-1.91823 -0.94931,-1.91823 -0.2677,0 -2.70944,1.84333 -3.49496,2.63842 -3.33598,3.37666 -4.81635,6.367888 -7.54759,15.250688 -0.38953,1.26687 -1.37475,6.71045 -2.02979,11.21506 -0.42563,2.92702 -0.32942,12.66844 0.14807,14.99195 0.86119,4.19054 4.63091,11.70283 7.49349,14.93297 1.10671,1.24882 3.58071,2.64058 5.34301,3.00574 0.50565,0.10478 1.41873,0.35457 2.02906,0.5551 1.28117,0.42093 3.80497,0.88467 5.90177,1.08445 0.80036,0.0762 2.34817,0.23447 3.43958,0.35161 1.09141,0.11713 2.34986,0.16439 2.79656,0.10503 0.44671,-0.0594 2.58983,-0.28446 4.7625,-0.50022 z m 5.27323,-12.03705 c -0.29104,-0.12506 -0.88635,-0.23582 -1.32291,-0.24612 -1.32777,-0.0313 -3.53031,-1.02436 -4.51033,-2.03351 -0.78142,-0.80466 -1.04014,-0.92425 -1.6479,-0.76175 -0.39652,0.10602 -1.52817,0.2483 -2.51478,0.31618 -2.25571,0.15519 -3.45247,-0.25011 -7.9296,-2.6855 -0.97835,-0.53218 -1.25677,-0.82918 -1.25677,-1.34063 0,-0.74962 0.51552,-0.89181 0.70331,-0.19398 0.24572,0.91313 6.42136,3.24115 8.59795,3.24115 1.13692,0 3.98696,-0.85092 4.57486,-1.36589 0.14671,-0.12851 -0.54681,-0.98952 -1.67787,-2.08308 -2.56373,-2.47873 -2.46797,-2.76745 0.83713,-2.52417 4.32567,0.3184 4.89997,0.77542 3.26072,2.59479 -0.99257,1.10164 -1.47571,2.78546 -0.90336,3.14835 0.48505,0.30753 0.0257,0.28746 -0.55692,-0.0243 -0.33047,-0.17687 -0.62631,-0.14385 -0.97128,0.10839 -0.48359,0.35362 -0.48287,0.3773 0.029,0.94288 0.72458,0.80065 1.62976,1.21909 3.0998,1.43295 0.68784,0.10006 1.31673,0.28892 1.39754,0.41967 0.0808,0.13076 0.32022,0.17125 0.53202,0.09 0.2118,-0.0813 0.72871,-0.028 1.14869,0.11842 0.5984,0.20861 1.12989,0.14291 2.4569,-0.30369 2.05061,-0.69013 3.73135,-2.14904 4.35395,-3.7793 0.24286,-0.63591 0.53743,-1.15621 0.65459,-1.15621 0.38375,0 0.53146,0.49819 0.291,0.98142 -0.74636,1.49983 -1.24518,2.36384 -1.53293,2.65517 -0.17889,0.18112 -0.55505,0.62145 -0.83592,0.97852 -1.01025,1.28433 -4.69892,2.14838 -6.27686,1.47031 z m -3.73212,-6.99522 c 1.14044,-0.93253 0.79098,-1.47104 -0.95593,-1.47307 -0.76855,-8e-4 -1.72479,-0.17243 -2.12497,-0.38119 -0.40018,-0.20875 -0.7276,-0.27548 -0.7276,-0.14829 0,0.32997 2.43067,2.64967 2.76447,2.63826 0.15303,-0.005 0.62284,-0.2913 1.04403,-0.63571 z m 11.62026,-3.52386 c -0.98431,-0.3785 -1.20533,-0.63419 -1.98437,-2.29562 -0.76416,-1.62971 -0.87378,-2.12871 -0.85405,-3.88797 0.0173,-1.54052 0.16212,-2.2859 0.61184,-3.14871 0.43885,-0.84196 0.54736,-1.37803 0.42524,-2.10087 -0.30814,-1.82389 1.13872,-2.654 4.62584,-2.654 1.84103,0 2.06448,0.0567 2.34743,0.59531 0.172,0.32743 0.60783,0.99988 0.96851,1.49434 0.61999,0.84994 0.92843,2.34341 0.41894,2.02853 -0.13027,-0.0805 -0.30887,0.0413 -0.39688,0.27061 -0.30976,0.80722 -0.16388,1.16746 0.47276,1.16746 0.44779,0 0.67951,0.18619 0.79262,0.63688 0.0879,0.35028 0.23263,0.82653 0.32158,1.05833 0.10121,0.26377 0.021,0.42146 -0.21445,0.42146 -0.45143,0 -1.26794,1.61436 -1.26794,2.5069 0,0.35028 -0.11906,0.71045 -0.26458,0.80039 -0.14552,0.0899 -0.26459,0.38188 -0.26459,0.64877 0,0.26688 -0.18833,0.55751 -0.41851,0.64584 -0.59755,0.2293 -0.64117,0.20741 -0.47092,-0.23628 0.0839,-0.21862 0.008,-0.39687 -0.16928,-0.39687 -0.2052,0 -0.26523,0.22447 -0.16588,0.6203 0.18721,0.74592 -0.57958,1.53867 -1.92374,1.98888 -1.10836,0.37123 -1.21626,0.36441 -2.58957,-0.16368 z m 1.33391,-1.45331 c -0.0866,-0.47295 -0.39367,-1.27468 -0.68241,-1.78164 -0.51157,-0.8982 -0.71745,-3.62295 -0.32208,-4.26268 0.0877,-0.14195 0.15617,-0.95827 0.15207,-1.81405 -0.007,-1.41509 0.0751,-1.64352 0.9047,-2.5231 1.08442,-1.14983 1.19413,-1.70427 0.20957,-1.05916 -1.04198,0.68273 -1.8331,1.66665 -2.73064,3.39611 -0.65253,1.25737 -0.80787,1.88905 -0.83052,3.37738 -0.0153,1.00691 0.0879,1.9778 0.22936,2.15753 0.14147,0.17974 0.33314,0.64504 0.42593,1.03401 0.25313,1.06117 1.43722,2.33549 2.17013,2.33549 0.56817,0 0.61557,-0.086 0.47389,-0.85989 z m 0.69983,-3.38906 c 0,-0.42797 -0.11907,-0.77813 -0.26459,-0.77813 -0.14552,0 -0.26458,0.42375 -0.26458,0.94166 0,0.56039 0.10713,0.87544 0.26458,0.77813 0.14552,-0.0899 0.26459,-0.51368 0.26459,-0.94166 z m 2.06883,-1.27213 c 0.42855,-0.27174 0.31962,-2.19743 -0.13269,-2.3459 -0.36921,-0.12118 -0.74331,0.52066 -0.99982,1.71542 -0.15561,0.72478 -0.10856,0.85926 0.29942,0.85584 0.26623,-0.002 0.64112,-0.10364 0.83309,-0.22536 z m -0.99066,-3.54751 c -0.0109,-0.1055 -0.0198,-0.60854 -0.0198,-1.11787 0,-0.58502 -0.12708,-0.92604 -0.34511,-0.92604 -0.23815,0 -0.32826,0.3485 -0.29073,1.12448 0.0299,0.61847 0.0661,1.16417 0.0805,1.21267 0.0511,0.1724 0.59466,-0.10473 0.57516,-0.29324 z m 1.56766,-1.63142 c 0,-0.94772 -0.39799,-1.44325 -0.82011,-1.02113 -0.35073,0.35073 0.0227,1.93156 0.45631,1.93156 0.2382,0 0.3638,-0.31433 0.3638,-0.91043 z m 1.48277,-0.0762 c -0.26895,-0.26895 -0.49087,0.13597 -0.2702,0.49302 0.1667,0.26972 0.22902,0.26993 0.31864,0.001 0.0613,-0.18383 0.0395,-0.40617 -0.0484,-0.49409 z m -6.25115,-1.46072 c 0.003,-0.10914 -0.0894,-0.19843 -0.20579,-0.19843 -0.39492,0 -0.84669,0.63263 -0.84078,1.17739 0.005,0.50721 0.0394,0.49948 0.52328,-0.11906 0.28457,-0.3638 0.52005,-0.75076 0.52329,-0.8599 z m -24.35866,10.48963 c -0.19374,-0.23344 -0.62106,-0.52664 -0.9496,-0.65155 -0.79953,-0.30398 -2.13402,-2.18807 -2.49947,-3.52885 -0.17797,-0.65294 -0.23244,-1.98908 -0.13705,-3.36141 0.12674,-1.8232 0.31663,-2.57864 0.95165,-3.78583 0.43632,-0.82946 0.93165,-1.96984 1.10073,-2.53417 0.16908,-0.56433 0.88259,-1.73691 1.58559,-2.60573 1.06785,-1.31975 1.45362,-1.60932 2.34439,-1.75982 1.21787,-0.20575 3.13986,0.0488 3.68189,0.48772 0.5854,0.474 1.56163,2.14502 1.65986,2.84119 0.0496,0.35118 0.26869,0.78355 0.48697,0.96083 0.34044,0.27648 0.31536,0.32351 -0.17639,0.33073 -0.50336,0.007 -0.57326,0.15629 -0.57326,1.22108 0,1.36709 -0.10598,1.56756 -0.70679,1.33701 -0.3326,-0.12763 -0.38062,-0.37044 -0.22888,-1.15716 0.2801,-1.45223 0.26607,-1.98784 -0.055,-2.1002 -0.81843,-0.28638 -1.23666,2.86702 -0.44247,3.33614 0.42257,0.24961 0.41102,0.28812 -0.13229,0.44088 -0.54412,0.15298 -0.59531,0.32533 -0.59531,2.00422 0,1.39266 0.08,1.79168 0.33073,1.65011 0.26458,-0.14937 0.26458,-0.11546 0,0.1696 -0.45022,0.48505 -0.41655,0.79597 0.0661,0.61074 0.21828,-0.0838 0.39687,-0.30987 0.39687,-0.50246 0,-0.19259 0.25493,-0.38821 0.56652,-0.43471 0.31158,-0.0465 0.66546,-0.35388 0.7864,-0.68306 0.20013,-0.5447 0.15853,-0.58311 -0.4627,-0.42719 -0.61533,0.15444 -0.65514,0.12001 -0.40398,-0.34929 0.32437,-0.6061 1.10126,-1.30315 1.10126,-0.98809 0,0.1184 0.17481,-0.0159 0.38846,-0.29833 0.21366,-0.28247 0.39225,-0.96007 0.39688,-1.50578 0.005,-0.5457 0.12748,-0.99218 0.273,-0.99218 0.47023,0 0.27204,2.71833 -0.27006,3.70416 -0.28008,0.50933 -0.5859,1.1344 -0.67961,1.38906 -0.0937,0.25467 -0.27556,0.46303 -0.40411,0.46303 -0.12855,0 -0.23372,0.17777 -0.23372,0.39506 0,0.79796 -0.92374,2.51535 -1.35294,2.51535 -0.71082,0 -1.11562,0.66865 -0.67285,1.11142 0.31369,0.31369 0.31684,0.45154 0.0196,0.85809 -0.27882,0.38133 -0.56746,0.45009 -1.35678,0.32326 -0.65637,-0.10547 -0.8682,-0.0773 -0.6134,0.0816 0.44825,0.27951 0.46712,0.25474 -0.88916,1.16687 -1.18427,0.79645 -1.80252,0.86836 -2.30106,0.26766 z m 0.68433,-1.16306 c 0.0899,-0.14553 -0.0887,-0.26459 -0.39687,-0.26459 -0.30822,0 -0.48681,0.11906 -0.39688,0.26459 0.0899,0.14552 0.26853,0.26458 0.39688,0.26458 0.12834,0 0.30694,-0.11906 0.39687,-0.26458 z m -1.52718,-1.52136 c -0.0726,-0.40018 -0.39727,-1.72964 -0.72143,-2.95435 -0.41334,-1.56161 -0.54018,-2.58583 -0.42462,-3.42889 0.19143,-1.39667 -0.12334,-1.18564 -0.62723,0.42051 -0.44235,1.40995 -0.21019,4.70417 0.37727,5.3533 0.22531,0.24896 0.40965,0.65165 0.40965,0.89485 0,0.27371 0.21305,0.44219 0.5592,0.44219 0.46565,0 0.53711,-0.12172 0.42716,-0.72761 z m 2.94063,0.49443 c 0.50916,-0.3227 -0.18218,-1.40288 -0.77704,-1.21408 -0.23617,0.075 -0.57877,-0.0437 -0.76132,-0.26365 -0.64845,-0.78133 -0.83961,-0.10314 -0.38903,1.38018 0.11369,0.3743 1.38891,0.43884 1.92739,0.0976 z m 1.70795,-1.2365 c -0.0866,-0.53379 -0.0137,-1.20007 0.16861,-1.54074 0.21947,-0.41009 0.24681,-0.88743 0.0863,-1.50688 -0.2844,-1.09754 -0.96077,-1.2051 -1.07948,-0.17166 -0.0593,0.51658 -0.2166,0.71315 -0.52917,0.66146 -0.57649,-0.0953 -0.74877,1.3866 -0.28996,2.49426 0.25764,0.62201 0.45415,0.76064 0.94514,0.66678 0.34093,-0.0652 0.61988,-0.016 0.61988,0.1094 0,0.12534 0.052,0.22789 0.11565,0.22789 0.0636,0 0.047,-0.42323 -0.037,-0.94051 z m -4.05639,-2.89595 c -0.007,-1.00059 0.24229,-2.4858 0.53215,-3.175 0.12241,-0.29104 0.28916,-0.73753 0.37055,-0.99219 0.22842,-0.71473 0.59075,-0.55069 0.87662,0.39688 l 0.25942,0.85989 0.30655,-1.05833 c 0.1686,-0.58208 0.30721,-1.31017 0.30802,-1.61796 7.9e-4,-0.3078 0.22182,-0.84358 0.49113,-1.19063 0.26932,-0.34704 0.55696,-1.14684 0.63922,-1.77732 0.16678,-1.27844 0.29293,-1.50085 0.70632,-1.24536 0.18404,0.11374 0.19665,0.33602 0.0361,0.63604 -0.21152,0.39523 -0.11694,0.46488 0.6613,0.48694 0.49947,0.0142 0.97122,-0.0763 1.04833,-0.20112 0.0771,-0.12477 0.32707,-0.15515 0.55545,-0.0675 0.68137,0.26147 0.32508,-0.71637 -0.47976,-1.31669 -0.72598,-0.54149 -2.89737,-0.72989 -4.08134,-0.35411 -0.57354,0.18203 -2.3801,2.47586 -2.13946,2.7165 0.0757,0.0757 0.37813,0.009 0.67207,-0.14838 0.70716,-0.37847 0.8338,-0.36163 0.8338,0.11085 0,0.21828 0.14883,0.40153 0.33073,0.40723 0.1819,0.006 -0.0265,0.16911 -0.46302,0.36314 -0.43656,0.19403 -1.04605,0.63586 -1.35441,0.98183 -0.7774,0.87223 -1.16842,3.7985 -0.8265,6.1853 0.0625,0.43656 0.13417,0.97234 0.15917,1.19063 0.0827,0.72176 0.56346,-0.30487 0.55758,-1.19063 z m 5.5652,1.05833 c 0.26976,-0.32504 0.25168,-0.39687 -0.0999,-0.39687 -0.2361,0 -0.42927,0.17859 -0.42927,0.39687 0,0.21829 0.045,0.39688 0.0999,0.39688 0.0549,0 0.24811,-0.17859 0.42927,-0.39688 z m -3.88924,-1.54534 c 0.18583,-0.48427 -0.21676,-1.07812 -0.57909,-0.85419 -0.42193,0.26076 -0.36357,1.20891 0.0744,1.20891 0.20271,0 0.42982,-0.15963 0.50468,-0.35472 z m -2.28002,-6.04489 c -0.0845,-0.21107 -0.14715,-0.14837 -0.15985,0.15985 -0.0115,0.27892 0.051,0.43519 0.13896,0.34727 0.0879,-0.0879 0.0973,-0.31613 0.0209,-0.50712 z m 18.17605,2.8404 c -0.20268,-0.52817 0.0979,-0.93871 0.68719,-0.93871 0.67732,0 1.32894,-0.27334 1.32894,-0.55747 0,-0.12995 -0.21429,-0.23628 -0.47621,-0.23628 -0.742,0 -2.69879,-1.38574 -2.69879,-1.9112 0,-0.60529 0.0544,-0.59672 1.2158,0.19141 1.71775,1.1657 3.78887,0.83101 5.59722,-0.90449 0.7778,-0.74647 0.75088,-0.98248 -0.13229,-1.15994 -0.97218,-0.19535 -2.55524,-1.28582 -2.66056,-1.8327 -0.0786,-0.40837 -0.005,-0.4082 1.0565,0.002 0.62757,0.24276 1.18072,0.53376 1.22923,0.64668 0.0485,0.11292 0.24836,0.20531 0.44412,0.20531 0.19576,0 0.53591,0.17998 0.75589,0.39996 0.35689,0.35689 0.47277,0.30449 1.07614,-0.48657 0.37191,-0.4876 0.80739,-1.26289 0.96775,-1.72288 0.36454,-1.04574 1.03781,-1.11734 1.02244,-0.10874 -0.0281,1.84657 -3.35149,5.82876 -6.27276,7.51631 -0.76397,0.44133 -1.45561,0.91012 -1.53697,1.04175 -0.23747,0.38425 -1.44236,0.2754 -1.60364,-0.14487 z m -20.31286,-10.35306 c -0.22507,-0.5865 -0.22707,-0.5838 0.43471,-0.58418 0.73107,-5.3e-4 6.68947,-1.27096 7.07351,-1.50832 0.15252,-0.0943 0.22369,-0.25813 0.15816,-0.36417 -0.0655,-0.10603 -0.0143,-0.36236 0.11374,-0.56961 0.19432,-0.31442 0.26185,-0.30137 0.40772,0.0788 0.27019,0.70409 0.75049,0.5504 1.96585,-0.62907 1.24543,-1.20865 2.65029,-1.80289 2.65029,-1.12105 0,0.22175 -0.23813,0.46545 -0.52917,0.54156 -0.29104,0.0761 -0.53107,0.21379 -0.53339,0.30596 -0.009,0.36127 -1.54213,1.88737 -1.89593,1.88737 -0.20639,0 -0.48837,0.10443 -0.62661,0.23206 -0.40829,0.37695 -2.75901,1.03766 -4.74927,1.33488 -1.01865,0.15212 -2.26802,0.39756 -2.77638,0.54544 -1.24863,0.36321 -1.50513,0.34054 -1.69323,-0.14965 z m 3.06696,-3.70812 c -0.62593,-0.37513 -1.30673,-0.61733 -1.51288,-0.53822 -0.49798,0.19109 -0.73812,-0.23135 -0.32271,-0.56769 0.54594,-0.44203 1.88138,-0.30103 2.25931,0.23854 0.19111,0.27285 0.57182,0.49609 0.84602,0.49609 0.64805,0 0.96556,0.52284 0.49753,0.81928 -0.4996,0.31645 -0.48594,0.31991 -1.76727,-0.448 z m 5.56971,-1.76034 c 0.0606,-0.1819 0.33459,-0.37423 0.60894,-0.42739 0.43156,-0.0836 0.45099,-0.039 0.14411,0.33073 -0.41968,0.50568 -0.9102,0.56865 -0.75305,0.0967 z m 27.85354,3.30312 c 0.27031,-2.33878 0.93556,-6.48765 1.07695,-6.71642 0.0697,-0.11269 0.007,-1.16231 -0.14014,-2.332478 -0.28336,-2.25986 -0.9855,-3.98295 -2.52845,-6.20501 -1.42593,-2.05353 -1.52502,-2.12154 -2.41639,-1.6587 -0.73086,0.37951 -1.78381,1.58424 -2.35581,2.69543 -0.39509,0.76752 -1.06223,0.67916 -0.99885,-0.13229 0.0284,-0.36381 0.12744,-1.4949 0.22006,-2.51355 0.0926,-1.01864 0.0646,-2.32833 -0.0622,-2.91041 -0.22407,-1.02819 -0.26425,-1.06013 -1.41068,-1.12129 -0.89652,-0.0478 -1.59328,0.14746 -2.89984,0.81276 -0.94589,0.48165 -1.69279,1.00771 -1.65979,1.16902 0.033,0.16132 -0.0995,0.60077 -0.29447,0.97657 -0.30873,0.59509 -0.27269,0.99819 0.2793,3.12343 0.73259,2.82054 1.28004,3.73422 2.89482,4.83139 0.64066,0.4353 1.22683,0.97004 1.30259,1.18833 0.0758,0.218278 0.92605,0.992178 1.88953,1.719788 0.96348,0.7276 1.94355,1.6801 2.17794,2.11666 0.23439,0.43657 0.80115,1.33511 1.25947,1.99677 0.47215,0.68163 0.91171,1.72582 1.0142,2.4093 0.15386,1.02599 0.32415,1.28814 1.1394,1.75406 0.52718,0.30128 1.04368,0.49514 1.14778,0.4308 0.1041,-0.0643 0.26818,-0.79971 0.36462,-1.63416 z M 132.72096,85.528332 c 0,-0.14553 -0.18562,-0.26459 -0.41249,-0.26459 -0.22687,0 -0.3389,0.11906 -0.24897,0.26459 0.0899,0.14552 0.27556,0.26458 0.41249,0.26458 0.13694,0 0.24897,-0.11906 0.24897,-0.26458 z m -4.36167,5.29806 c -0.24234,-0.39212 0.67999,-2.91681 1.06558,-2.91681 0.20413,0 0.13573,0.49829 -0.20883,1.52135 -0.58933,1.74989 -0.61344,1.78915 -0.85675,1.39546 z"
       id="path839"
       inkscape:connector-curvature="0"
       sodipodi:nodetypes="cccccscccccccssscccccsscssccscscccsccccccsccccsccscccccccscssccscccccccsccccccccccccccccscccssccccscscccccccccscsscsccccsccccscsccsccscccscsscscscccccccccscccccccccccssccsssccsccccscccscsscccccssccccccccsccscscccccscccccccscscccccccccccccsccscscsscccccccccccsccscccccscccccccsccccsccsscsccscccccccccccccscssscsccccccssccccssssccccccsccccscccsccccccscscccscccsccccsccsccsssscccscccscsccccccssccccccccccccccssccccccccccccccccccscsccccccccssscccsccccccccssssccccccsssccccccccccccssccscccccccccscccccccccccccccccccccscccccccccsscsssscs" />
    <text
       xml:space="preserve"
       style="font-style:normal;font-weight:normal;font-size:10.58333302px;line-height:1.25;font-family:sans-serif;letter-spacing:0px;word-spacing:0px;fill:#e2e3db;fill-opacity:1;stroke:#222b00;stroke-width:0.1;stroke-miterlimit:4;stroke-dasharray:none;stroke-opacity:1"
       x="98.028053"
       y="168.22316"
       id="text862"><tspan
         sodipodi:role="line"
         id="tspan860"
         x="98.028053"
         y="168.22316"
         style="fill:#e2e3db;stroke:#222b00;stroke-width:0.1;stroke-miterlimit:4;stroke-dasharray:none;stroke-opacity:1">Image Not Found</tspan></text>
  </g>
</svg>
