<?xml version="1.0" encoding="UTF-8" standalone="no"?>
<!-- Created with Inkscape (http://www.inkscape.org/) -->

<svg
   xmlns:osb="http://www.openswatchbook.org/uri/2009/osb"
   xmlns:dc="http://purl.org/dc/elements/1.1/"
   xmlns:cc="http://creativecommons.org/ns#"
   xmlns:rdf="http://www.w3.org/1999/02/22-rdf-syntax-ns#"
   xmlns:svg="http://www.w3.org/2000/svg"
   xmlns="http://www.w3.org/2000/svg"
   xmlns:sodipodi="http://sodipodi.sourceforge.net/DTD/sodipodi-0.dtd"
   xmlns:inkscape="http://www.inkscape.org/namespaces/inkscape"
   width="98.720642mm"
   height="136.94019mm"
   viewBox="0 0 98.720642 136.9402"
   version="1.1"
   id="svg8"
   inkscape:version="0.92.2 (5c3e80d, 2017-08-06)"
   sodipodi:docname="rabbit_head.svg">
  <defs
     id="defs2">
    <inkscape:path-effect
       effect="ellipse_5pts"
       id="path-effect5048"
       is_visible="true" />
    <linearGradient
       id="linearGradient1329"
       osb:paint="solid">
      <stop
         style="stop-color:#f4e3d7;stop-opacity:1;"
         offset="0"
         id="stop1327" />
    </linearGradient>
  </defs>
  <sodipodi:namedview
     id="base"
     pagecolor="#ffffff"
     bordercolor="#666666"
     borderopacity="1.0"
     inkscape:pageopacity="0.0"
     inkscape:pageshadow="2"
     inkscape:zoom="1.979899"
     inkscape:cx="368.90024"
     inkscape:cy="241.89576"
     inkscape:document-units="mm"
     inkscape:current-layer="layer1"
     showgrid="false"
     inkscape:window-width="2560"
     inkscape:window-height="1329"
     inkscape:window-x="0"
     inkscape:window-y="0"
     inkscape:window-maximized="1"
     showguides="false" />
  <metadata
     id="metadata5">
    <rdf:RDF>
      <cc:Work
         rdf:about="">
        <dc:format>image/svg+xml</dc:format>
        <dc:type
           rdf:resource="http://purl.org/dc/dcmitype/StillImage" />
        <dc:title />
      </cc:Work>
    </rdf:RDF>
  </metadata>
  <g
     inkscape:label="Layer 1"
     inkscape:groupmode="layer"
     id="layer1"
     transform="translate(-479.66204,-46.67968)">
    <path
       style="opacity:1;fill:#ffffff;fill-opacity:1;fill-rule:nonzero;stroke:#222b00;stroke-width:0.89999998;stroke-miterlimit:4;stroke-dasharray:none;stroke-dashoffset:0;stroke-opacity:1"
       d="m 480.11204,47.12968 h 97.82064 v 136.04019 h -97.82064 z"
       id="rect1347"
       inkscape:path-effect="#path-effect5048"
       inkscape:original-d="m 480.11204,47.12968 h 97.82064 v 136.04019 h -97.82064 z"
       inkscape:connector-curvature="0" />
    <text
       xml:space="preserve"
       style="font-style:normal;font-weight:normal;font-size:10.58333302px;line-height:1.25;font-family:sans-serif;text-align:center;letter-spacing:0px;word-spacing:0px;text-anchor:middle;fill:#8a916f;fill-opacity:1;stroke:#222b00;stroke-width:0.1;stroke-miterlimit:4;stroke-dasharray:none;stroke-opacity:1"
       x="528.98358"
       y="58.055717"
       id="text862"><tspan
         sodipodi:role="line"
         id="tspan860"
         x="528.98358"
         y="58.055717"
         style="text-align:center;text-anchor:middle;fill:#8a916f;stroke:#222b00;stroke-width:0.1;stroke-miterlimit:4;stroke-dasharray:none;stroke-opacity:1">Sorry!</tspan><tspan
         sodipodi:role="line"
         x="528.98358"
         y="71.284882"
         style="text-align:center;text-anchor:middle;fill:#8a916f;stroke:#222b00;stroke-width:0.1;stroke-miterlimit:4;stroke-dasharray:none;stroke-opacity:1"
         id="tspan1343">Image Not Found</tspan></text>
    <g
       id="g5139">
      <path
         d="m 546.12903,71.177164 c -6.80868,0.5696 -10.48037,7.640832 -11.93208,13.559379 -1.58967,8.654972 -3.52818,17.532127 -1.74152,26.325777 -3.69341,-0.14156 -7.81092,-5.64295 -12.12154,-2.39541 -0.61389,-2.78232 -4.80654,1.56975 -2.84196,-2.42431 0.77988,-7.285327 -0.32813,-16.112727 -7.17895,-20.267084 -5.1195,-2.612141 -10.97533,0.191878 -15.50604,2.762909 -5.79779,4.852549 -7.88278,12.615585 -8.80326,19.820065 -0.0883,2.45699 -1.43419,12.22978 2.91079,7.06267 4.24664,-6.10838 5.39141,-14.34818 11.4768,-19.195244 4.0283,-3.505301 8.08892,2.547232 5.49203,6.397824 -0.54445,5.2051 3.44948,11.76181 -3.40192,14.04976 -5.65281,4.92037 -7.18279,12.61981 -9.16318,19.46144 -1.37794,8.25286 -2.16438,16.75661 -0.55956,25.04158 1.89171,5.10728 4.52449,10.09242 7.99387,14.26512 4.68995,3.36386 10.77636,4.09591 16.39948,4.48029 8.09309,0.25352 16.11359,-1.38091 24.21269,-1.36827 7.85222,-0.88909 14.36501,-5.97053 19.75378,-11.39558 2.41376,-2.43092 4.93501,-5.69523 6.53724,-8.99283 2.28405,-2.65027 2.95114,-6.08153 3.73277,-10.21661 1.59223,-4.88917 1.10202,-10.19335 -1.39009,-14.68024 -2.87804,-3.85196 -5.64398,-7.98581 -9.53792,-10.85412 -3.2234,-1.4537 -7.1673,-2.46637 -9.16216,-5.56408 -2.29069,-11.48686 -2.6912,-23.286262 -1.99816,-34.955563 0.66415,-3.583718 1.14808,-9.609572 -3.17111,-10.917473 z m -0.0455,0.825789 c 4.46873,2.884302 1.74998,9.153378 1.88447,13.527956 0.0122,8.744675 -0.24812,17.567511 1.4559,26.184861 0.6041,2.75621 -1.07988,3.83005 -3.05807,4.05292 0.52369,0.46194 -0.18229,0.59127 0.37139,0.58978 0.56214,-0.001 2.27881,-1.1909 2.75757,-0.49791 3.00996,4.35683 6.39566,5.86375 9.102,6.96451 4.50357,1.77288 6.95087,6.59471 9.83636,10.2441 4.46053,6.51317 2.09283,14.98893 -0.34639,21.80401 -2.87453,5.3946 -6.10712,10.7118 -10.92338,14.60737 -3.76246,3.25768 -7.92191,6.64912 -12.90664,7.71306 -7.38431,1.21858 -14.9116,0.98259 -22.3172,2.08624 -6.08853,0.48127 -12.35699,-0.57472 -18.0739,-2.68684 -5.16263,-2.61254 -7.25017,-8.55285 -9.532,-13.50972 -2.30201,-5.90388 -1.48397,-12.45681 -1.27943,-18.63877 1.29988,-8.74419 2.86588,-18.03886 8.40713,-25.20563 2.29976,-3.1235 5.78383,-5.3561 6.53956,0.009 1.82831,3.8832 3.54198,8.36826 8.04435,9.6556 2.30483,-1.78168 3.06565,-6.82308 3.7219,-10.0293 1.82013,-3.62887 -1.66902,-10.80303 4.42986,-10.49393 3.58563,1.72998 9.13279,3.25579 8.64611,8.17876 0.57897,5.45237 6.78567,7.10801 8.85437,11.51475 0.54265,4.00011 6.97244,9.73332 6.55232,2.34752 1.12113,-4.92022 1.76586,-10.58048 -1.88398,-14.6529 -0.93304,-3.0535 -3.47077,-2.36715 -5.21882,-1.05901 1.39969,-5.56934 -4.41198,-5.49492 -7.56059,-3.49883 -1.47634,-4.90651 -0.88419,-10.27066 -0.47006,-15.317383 1.12615,-4.962305 1.58984,-10.136274 3.34295,-14.898832 1.93825,-4.098881 4.5818,-8.612741 9.62422,-8.9917 z M 505.3346,85.783507 c 6.92114,-0.300538 11.08551,7.269609 11.24146,13.380247 1.28511,4.007136 -0.93515,9.594676 -1.55006,11.771706 1.03322,-2.25138 -0.98475,7.31848 -2.10159,2.43443 -1.15762,-2.2162 1.18875,-10.14536 -2.84979,-5.13977 -1.1392,0.95568 -2.55241,5.59045 -2.60308,2.03378 -0.1402,-2.79574 -1.55565,-5.68603 -0.37323,-8.3837 3.13271,-4.957025 -4.35283,-10.022898 -7.6903,-5.479326 -4.33504,2.887348 -5.5074,8.199206 -7.80548,12.552506 -0.56152,3.65112 -6.08835,10.97219 -4.89468,3.02651 0.27371,-6.98176 1.88914,-14.313204 6.22497,-19.9588 2.76517,-3.723332 7.44179,-5.252757 11.77535,-6.207602 z m 6.09317,22.334553 c 2.3106,4.2521 -4.72896,1.8905 0,0 z m 7.15615,0.0786 c 1.31879,0.53838 -0.93659,0.54354 0,0 z m -1.03765,1.13282 c 2.65089,1.07532 2.80206,10.26125 -0.1509,5.38985 2.59861,3.3028 0.87657,7.58543 -0.33098,11.35963 -2.10286,3.9097 -7.12815,-3.19019 -7.87635,-6.11516 -1.9351,-2.36789 -1.21095,-9.89482 2.13587,-7.91356 0.75342,2.01466 1.93798,8.80809 3.27222,3.28922 0.90684,-1.94089 0.9894,-5.05874 2.95014,-6.00998 z m 20.69073,1.31155 c 4.28649,-0.5681 -0.59487,11.35218 3.69808,5.06172 4.07277,-3.50628 6.51622,5.86618 6.3225,9.12293 -0.79607,2.45506 -0.51095,11.98756 -3.72846,6.16551 -1.24626,-4.80603 -5.77096,-7.42931 -9.0764,-10.69803 -2.41481,-3.68081 -3.20602,-9.36474 2.78428,-9.65213 z m -18.05316,17.13487 c -1.76728,0.20564 -0.39647,1.69385 0,0 z m -7.40679,0.85627 c -3.63956,1.11233 6.39955,2.90723 1.40405,0.49971 l -0.58145,-0.38351 z m 10.35388,0.0919 c -3.94129,2.17309 -4.82641,3.02304 -9.54737,3.98428 -2.60813,-0.38431 -4.12778,2.12314 -0.69473,1.02247 3.80547,-0.55457 8.78691,-1.38567 10.50899,-4.94976 z m 16.91731,6.20685 c -1.01867,4.28716 -3.88293,2.44555 -6.1836,1.78022 1.38786,1.69351 5.39069,2.1953 1.39715,4.02997 -2.08535,1.90057 -8.26872,-2.66049 -3.4532,1.36204 3.55999,0.39692 -3.65761,1.82614 0.47019,2.30018 3.35115,-2.22414 7.73848,-4.95437 8.03606,-9.31215 l -0.2666,-0.1603 z m -22.95726,0.84388 c -4.88533,0.875 -6.54799,7.47332 -7.03879,11.76986 -0.74141,3.58572 4.11588,9.42153 7.06108,5.26723 -0.59236,-0.47475 3.16663,-0.15054 1.61347,-2.15676 2.1212,-1.50163 4.74602,-6.90658 3.52028,-8.56495 0.66667,2.35912 -3.40928,3.54386 -1.10357,4.2695 -2.4549,3.54448 -2.5427,-0.53264 -1.55132,-2.81482 -0.82881,-0.74284 1.02059,-6.45046 0.62941,-1.67638 0.40842,3.06698 2.48682,-2.47191 0.97991,-3.36383 -0.6613,-1.92408 -2.077,-2.91105 -4.11047,-2.72985 z m 0.19069,1.16478 c 3.37943,-0.47767 4.11063,3.20478 0.58061,1.88818 -0.12935,-3.58453 -2.44689,7.01196 -2.4723,5.74706 -1.80687,-5.05704 -2.13103,9.39847 -2.77,2.26176 -1.42629,-3.21491 2.29886,-5.52686 2.37721,-7.29215 -3.77754,1.58268 0.92608,-3.60933 2.28448,-2.60485 z m -4.53874,4.15686 c 0.46874,0.86219 -0.37702,0.82141 0,0 z m 28.2112,1.23145 c -5.79358,-1.0186 -5.45185,6.02781 -5.53008,9.89604 -0.008,4.69629 6.78965,6.06608 7.56718,1.86208 1.09688,1.58818 1.55033,-3.86817 2.88766,-4.50689 -0.73163,-1.7684 -2.34527,-2.18265 -0.97584,-3.71048 -0.69076,-1.66876 -1.61196,-4.23716 -3.94892,-3.54075 z m -0.6227,0.92139 c -2.41939,3.08991 -2.66991,8.04608 -0.86817,11.71246 -2.99679,2.07993 -4.8867,-7.47899 -1.48492,-9.69904 0.60871,-0.82838 1.3447,-1.68015 2.35309,-2.01342 z m -2.49649,0.13694 c 0.0706,2.35533 -2.16131,1.25924 0,0 z m 4.46019,0.56224 c 2.083,2.77453 -1.73338,2.44972 0,0 z m -30.61467,0.13022 c -0.98871,2.13244 2.63941,8.11474 0.1726,7.59644 -1.18696,-2.25424 -1.53668,-5.32651 -0.1726,-7.59644 z m 29.19615,0.63046 c 1.45604,2.42911 -1.27059,3.61713 0,0 z m 3.22875,0.24959 c 0.94448,0.63726 -0.60262,1.27835 0,0 z m -29.44058,1.40457 c 1.69875,1.22763 -1.53269,1.66605 0,0 z m 2.3952,0.3514 c 1.73396,1.65539 0.185,7.48294 -1.44528,2.99908 -0.37559,-1.60275 1.15526,-1.6682 1.44528,-2.99908 z m 24.97005,1.22628 c 2.11704,2.26998 -2.63197,3.81189 -0.50475,0.43516 l 0.24715,-0.33303 0.2576,-0.10212 z m -23.13347,0.47232 c 1.00315,0.46347 -1.55665,1.17784 0,0 z m -5.1232,1.66812 c 2.15257,0.22386 2.83306,2.85213 0.0791,1.70532 -0.0382,-0.48303 -0.51351,-1.27506 -0.0791,-1.70532 z m 26.12554,0.71313 c 1.06504,1.41211 -1.0673,2.95048 0,0 z m -25.92917,1.85209 c 1.42416,0.57587 -1.37013,0.45895 0,0 z m 8.60051,4.54029 c -3.72399,0.75583 6.14752,5.11223 0.28365,5.55325 -3.93757,1.19948 -8.61293,-0.66937 -11.51334,-3.19726 0.40171,3.41064 7.00146,5.09266 10.3836,4.52197 3.83297,0.0777 7.3487,4.48374 11.86865,2.87005 2.50861,0.23615 6.39277,-5.27525 4.7231,-5.74669 -1.47801,4.78526 -7.18548,5.84857 -11.26598,4.07002 -2.28779,-0.03 -3.22051,-3.33827 -0.39867,-2.08848 -1.46044,-2.18276 4.26816,-5.99549 -1.10727,-5.78482 -0.98843,-0.0977 -1.97977,-0.18965 -2.97374,-0.19804 z m 0.25528,0.68523 c 1.77134,0.55773 6.56119,0.72998 2.63963,2.70216 -0.97142,-0.64687 -2.3954,-1.74745 -2.63963,-2.70216 z"
         style="fill:#000000;stroke-width:0.26458332"
         id="path839"
         inkscape:connector-curvature="0" />
      <path
         inkscape:connector-curvature="0"
         id="path1325"
         d="m 517.30069,179.32638 c -2.42689,-0.10435 -5.28259,-0.50199 -7.81763,-1.08857 -2.43746,-0.56399 -5.29007,-1.48367 -6.16205,-1.98663 -2.07891,-1.19912 -3.90987,-3.18136 -5.51207,-5.96754 -1.05469,-1.83407 -3.35202,-6.84263 -3.84789,-8.38903 -0.50037,-1.56044 -0.81809,-3.16149 -1.02693,-5.1749 -0.20609,-1.98681 -0.14026,-7.43241 0.14434,-11.94015 0.0786,-1.24491 0.98138,-6.59529 1.57052,-9.30778 1.33123,-6.12915 3.17623,-10.85379 5.71532,-14.6357 1.60153,-2.38545 2.90327,-3.76793 4.17427,-4.4332 1.69935,-0.88947 2.8288,-0.1066 3.33236,2.30981 0.13453,0.64557 0.56883,1.65152 1.6028,3.71249 1.79042,3.56877 3.60313,5.4688 6.04219,6.33323 l 0.52043,0.18444 0.24797,-0.20059 c 0.65726,-0.53167 1.49045,-1.98558 2.01294,-3.51253 0.35332,-1.03261 0.78733,-2.78022 1.17343,-4.72504 0.17145,-0.86361 0.38468,-1.75554 0.47385,-1.98206 0.3417,-0.86807 0.3706,-1.14674 0.42843,-4.13173 0.0551,-2.84282 0.0939,-3.30713 0.33529,-4.00871 0.45193,-1.31354 1.45515,-1.97144 3.00621,-1.97144 0.42813,0 0.52784,0.0353 2.16451,0.76687 0.94364,0.42178 2.07112,0.94807 2.5055,1.16953 2.14608,1.09414 3.5241,2.35684 4.09021,3.74794 0.25715,0.63189 0.33327,1.07247 0.35964,2.08163 0.0167,0.63753 0.0634,1.03531 0.16619,1.41482 0.54807,2.0231 1.55497,3.31206 4.71288,6.03312 2.725,2.34803 3.70954,3.55631 4.07337,4.99906 0.53972,2.14024 2.57967,4.67592 4.22845,5.25602 0.54078,0.19026 1.11564,0.15044 1.444,-0.10001 0.53424,-0.40748 0.76605,-1.10997 0.8197,-2.48403 0.027,-0.69083 0.10389,-1.28489 0.29412,-2.27179 0.42648,-2.21249 0.55466,-3.3885 0.55715,-5.11153 0.002,-1.10768 -0.0287,-1.70565 -0.11529,-2.27179 -0.29035,-1.89953 -0.83562,-3.38896 -1.72972,-4.72474 l -0.3612,-0.53964 0.80692,-0.32271 c 0.64161,-0.2566 0.88808,-0.32307 1.20314,-0.32448 l 0.39622,-0.002 0.53922,0.71048 c 0.82872,1.09194 1.54067,1.889 2.30988,2.58605 1.72817,1.56605 3.25556,2.49583 6.05009,3.68293 1.97122,0.83736 2.91288,1.47198 4.40951,2.97171 1.10688,1.10918 1.91664,2.10832 3.50311,4.32243 0.64195,0.89591 1.47142,2.03737 1.84327,2.53658 1.47873,1.98519 2.26597,3.85442 2.71489,6.44618 0.1317,0.76033 0.15007,1.10265 0.15219,2.83582 0.002,1.54608 -0.0239,2.16562 -0.1197,2.87315 -0.2958,2.18523 -0.81134,4.42545 -1.60686,6.98242 -0.70228,2.25727 -1.04629,3.1512 -1.6118,4.18829 -2.60128,4.77058 -4.70707,7.85867 -7.27132,10.66329 -0.99354,1.08666 -1.70435,1.74847 -3.68684,3.43268 -3.21302,2.72961 -5.09914,4.09379 -7.36998,5.33054 -1.47461,0.8031 -3.49155,1.575 -4.79078,1.83349 -1.83402,0.36488 -5.8048,0.78028 -9.95579,1.04153 -7.06163,0.44444 -8.50384,0.56178 -11.18164,0.90981 -1.99671,0.2595 -3.90298,0.34006 -5.95702,0.25175 z m 14.90203,-12.05099 c 0.3114,-0.0376 0.7663,-0.12777 1.01088,-0.20046 0.24458,-0.0727 0.57532,-0.13287 0.73499,-0.13375 1.2875,-0.007 3.50053,-2.00418 4.47791,-4.04109 0.3445,-0.71795 0.40961,-1.24419 0.18848,-1.52331 -0.0816,-0.10295 -0.19235,-0.17813 -0.24619,-0.16704 -0.0538,0.0111 -0.18308,0.23943 -0.28721,0.50744 -0.69391,1.78611 -2.18764,3.15946 -4.1696,3.83357 -1.09963,0.37401 -1.89784,0.48037 -3.27757,0.4367 -1.26547,-0.0401 -1.75018,-0.12511 -2.91021,-0.51074 -0.42262,-0.1405 -0.89867,-0.27477 -1.05789,-0.2984 -0.38448,-0.0571 -0.85395,-0.30214 -1.17208,-0.61191 -0.26073,-0.25387 -0.5745,-0.82745 -0.57571,-1.05241 -7.9e-4,-0.15365 0.12329,-0.38902 0.26083,-0.49462 0.15957,-0.12251 0.67305,-0.10175 1.09782,0.0444 0.20787,0.0715 0.37795,0.1203 0.37795,0.10839 0,-0.0119 -0.0451,-0.12959 -0.10022,-0.26152 -0.1164,-0.27857 -0.12983,-0.82978 -0.0296,-1.21302 0.0385,-0.147 0.35473,-0.85529 0.70283,-1.57398 0.69834,-1.44184 0.79877,-1.80959 0.59941,-2.19512 -0.16238,-0.31399 -0.57392,-0.47418 -1.39685,-0.54371 -1.27433,-0.10767 -2.88223,-0.19933 -3.47958,-0.19834 -1.22158,0.002 -1.57159,0.48717 -0.97029,1.345 0.0872,0.1244 0.6744,0.75312 1.30489,1.39715 0.63048,0.64403 1.21054,1.29681 1.289,1.45062 0.37091,0.72704 -0.0293,1.11476 -1.32731,1.28577 -0.27562,0.0363 -0.66296,0.10996 -0.86075,0.16365 -1.06142,0.28817 -2.89318,0.30444 -4.25078,0.0377 -1.05926,-0.20808 -2.39874,-0.66926 -3.47451,-1.19627 -0.93414,-0.45763 -2.32393,-1.33569 -2.95092,-1.86437 -0.18245,-0.15385 -0.34963,-0.27972 -0.37152,-0.27972 -0.0219,0 -0.003,0.15811 0.0419,0.35135 0.37974,1.63357 2.35027,3.06314 5.266,3.82034 1.65934,0.43092 2.69914,0.52198 5.10152,0.44678 1.12959,-0.0354 1.94957,0.23472 4.63948,1.52814 2.41636,1.16188 3.2407,1.45923 4.42903,1.59757 0.69169,0.0805 0.75896,0.0808 1.38584,0.005 z m 8.23739,-10.69667 c 1.02261,-0.15785 1.84766,-0.7411 2.28502,-1.61534 0.12839,-0.25663 0.23343,-0.52591 0.23343,-0.5984 0,-0.0997 0.0285,-0.11984 0.11693,-0.0827 0.59486,0.25004 0.73609,0.042 1.52026,-2.23983 0.42747,-1.24387 0.82227,-2.05929 1.11719,-2.30745 l 0.19982,-0.16814 -0.18,-0.35578 c -0.099,-0.19568 -0.36018,-0.59333 -0.58038,-0.88366 -0.65553,-0.86428 -0.7445,-1.04616 -0.71076,-1.45297 0.021,-0.25368 0.0883,-0.4374 0.24189,-0.66063 0.11702,-0.17008 0.21218,-0.34892 0.21147,-0.39742 -0.003,-0.18437 -0.71853,-1.7129 -1.02068,-2.17942 -0.6026,-0.93043 -1.27932,-1.41482 -1.98744,-1.42259 -2.56844,-0.0282 -3.04009,0.0197 -3.80597,0.38639 -0.50518,0.24189 -1.23716,0.99468 -1.54665,1.59063 -0.79483,1.5305 -1.0821,3.32885 -1.08871,6.81538 -0.004,1.96002 0.004,2.09647 0.14428,2.53906 0.48681,1.53644 1.85763,2.70662 3.52583,3.00978 0.60512,0.10997 0.74557,0.11241 1.32447,0.023 z m -24.59867,-2.5822 c 0.48694,-0.23991 1.35103,-1.07507 1.28644,-1.24337 -0.0262,-0.0682 0.11061,-0.13056 0.51967,-0.23701 0.70486,-0.18343 1.1682,-0.39152 1.33012,-0.59737 0.17361,-0.2207 0.16299,-0.64483 -0.0243,-0.97264 l -0.14924,-0.26115 0.606,-0.61081 c 1.97161,-1.98726 3.55945,-5.87579 3.077,-7.53537 -0.0605,-0.20816 -0.13484,-0.39381 -0.16517,-0.41256 -0.0303,-0.0187 -0.0532,0.18481 -0.0509,0.45234 0.006,0.6849 -0.22524,1.12544 -1.11793,2.1296 -0.38333,0.4312 -0.71675,0.86285 -0.74094,0.95922 -0.0574,0.22865 0.0854,0.44331 0.39143,0.58854 0.13137,0.0623 0.23886,0.13616 0.23886,0.16403 0,0.0279 -0.16484,0.25053 -0.36632,0.49479 -0.60697,0.73586 -1.07213,0.9563 -1.3618,0.64537 -0.40892,-0.43891 -0.35295,-2.05245 0.12025,-3.4672 0.16671,-0.49844 0.17862,-0.58431 0.0971,-0.70065 -0.12531,-0.1789 -0.12178,-1.14171 0.007,-1.81753 0.16412,-0.86365 0.48682,-1.66359 0.61807,-1.53217 0.0279,0.028 0.0543,0.5219 0.0585,1.09761 0.009,1.24806 0.13164,1.6764 0.48051,1.68048 0.1675,0.002 0.48517,-0.43677 0.67767,-0.93593 0.51223,-1.32827 0.51684,-2.75914 0.0105,-3.26547 -0.0761,-0.0761 -0.22845,-0.33715 -0.33867,-0.58024 -0.72637,-1.60196 -1.98996,-2.38209 -3.6958,-2.28175 -2.21309,0.13017 -4.32425,1.98981 -5.60114,4.93384 -0.77501,1.78687 -1.30252,3.79528 -1.66168,6.32658 -0.16028,1.1296 -0.16836,1.56888 -0.041,2.22929 0.41401,2.14689 2.00912,4.23392 3.70153,4.84305 0.3702,0.13325 0.55024,0.15767 1.04993,0.14242 0.52462,-0.016 0.66059,-0.0467 1.04464,-0.23594 z m 17.73321,-10.42351 c 2.91555,-1.96342 4.40192,-3.29242 5.47827,-4.89821 0.69681,-1.03958 1.0516,-1.93091 1.23433,-3.10101 0.0652,-0.41729 0.0606,-0.47484 -0.0439,-0.55124 -0.0642,-0.0469 -0.13796,-0.0853 -0.164,-0.0853 -0.026,0 -0.12701,0.24698 -0.22438,0.54885 -0.3311,1.02651 -0.80929,1.66136 -1.48411,1.9703 -0.29478,0.13495 -0.46937,0.16681 -0.91192,0.16642 -0.64017,-5.3e-4 -1.21259,-0.13543 -2.58277,-0.60854 -0.53148,-0.18352 -0.9825,-0.31711 -1.00226,-0.29688 -0.0817,0.0837 0.73408,0.72831 1.59897,1.26341 1.364,0.84391 1.60966,1.12987 1.38155,1.60822 -0.12215,0.25614 -0.47671,0.52748 -1.23246,0.94316 -1.15937,0.63769 -1.18492,0.64623 -1.91761,0.64123 -0.74503,-0.005 -1.30633,-0.12158 -2.65923,-0.55194 -0.47034,-0.14961 -0.8988,-0.27203 -0.95215,-0.27203 -0.2692,0 0.0651,0.38507 1.15434,1.32959 0.42622,0.36959 0.53571,0.42982 0.93243,0.51282 0.24723,0.0517 0.49395,0.1385 0.54828,0.19282 0.0872,0.0872 0.085,0.11404 -0.0187,0.22854 -0.0646,0.0714 -0.46476,0.33476 -0.88926,0.5853 -0.84539,0.49895 -1.00113,0.67648 -0.78375,0.89343 0.12681,0.12656 0.76648,0.31688 1.10173,0.3278 0.11413,0.004 0.59173,-0.27779 1.43657,-0.84674 z m -21.0514,-9.70934 c 0.29399,-0.07 1.10582,-0.21951 1.80406,-0.33222 2.43925,-0.39374 4.21911,-0.88759 5.61076,-1.55677 1.05347,-0.50656 1.65116,-0.9187 2.34051,-1.61389 0.54449,-0.54911 1.10249,-1.33488 1.10249,-1.55252 0,-0.19876 -0.3939,-0.0445 -1.54745,0.6061 -3.41659,1.92689 -4.22373,2.27921 -6.60902,2.8849 -1.01693,0.25823 -1.38846,0.32157 -2.13341,0.36373 -0.68004,0.0385 -0.99749,0.0877 -1.28991,0.19997 -0.47052,0.18066 -0.91506,0.57884 -0.91506,0.81963 0,0.40318 0.48094,0.45638 1.63703,0.18107 z m 3.00131,-3.57738 c 0.31174,-0.11962 -0.0526,-0.51666 -0.86075,-0.93803 -0.25857,-0.13482 -0.59409,-0.32942 -0.7456,-0.43244 -0.18065,-0.12284 -0.43165,-0.21226 -0.72921,-0.2598 -0.43482,-0.0695 -0.46931,-0.0647 -0.82702,0.11429 -0.34648,0.17337 -0.37327,0.20357 -0.37327,0.42064 0,0.20365 0.0398,0.26043 0.30775,0.43954 0.32616,0.21799 0.94707,0.43923 1.66336,0.59269 0.45033,0.0965 1.38007,0.13398 1.56474,0.0631 z m 4.36201,-1.84704 c 0.18023,-0.19787 0.28727,-0.41146 0.28727,-0.57322 0,-0.11638 -0.0274,-0.12482 -0.2454,-0.0756 -0.34092,0.0769 -0.58565,0.27603 -0.61187,0.49788 -0.0377,0.31881 0.32874,0.41587 0.57,0.15098 z"
         style="opacity:1;fill:#ffe680;fill-opacity:1;fill-rule:nonzero;stroke:#222b00;stroke-width:0.02525381;stroke-miterlimit:4;stroke-dasharray:none;stroke-opacity:1" />
      <path
         inkscape:connector-curvature="0"
         id="path1333"
         d="m 546.27039,115.3143 c -0.32326,-0.92729 -1.04657,-1.56725 -1.96948,-1.7425 -0.5038,-0.0957 -1.79808,0.21644 -2.42169,0.58399 -0.24307,0.14326 -0.47156,0.26048 -0.50776,0.26048 -0.0362,0 -0.0266,-0.34656 0.0213,-0.77014 0.17431,-1.54068 -0.40682,-2.72259 -1.63386,-3.32293 -0.67748,-0.33146 -0.91927,-0.37696 -1.97793,-0.37226 -1.29545,0.006 -2.34774,0.25155 -3.43433,0.80216 -0.34982,0.17727 -0.66162,0.3223 -0.6929,0.3223 -0.0633,0 -0.39735,-1.37477 -0.63315,-2.60587 -0.0845,-0.441 -0.18299,-2.18616 -0.21896,-3.87813 -0.0779,-3.66622 0.20722,-7.852185 0.70079,-10.28716 0.17878,-0.88199 0.56894,-2.926602 0.86701,-4.543582 0.97849,-5.308016 1.70231,-7.895916 2.8254,-10.10169 2.32347,-4.563364 5.03547,-7.013281 8.34,-7.534041 0.49783,-0.07845 0.59123,-0.041 1.17142,0.469692 1.77674,1.563954 2.20995,4.000784 1.54313,8.680232 -0.5166,3.625253 -0.46727,16.92968 0.0852,22.985179 0.20886,2.28917 0.61621,5.32471 0.94547,7.04562 0.24488,1.27984 0.24072,1.93009 -0.0163,2.54514 -0.37559,0.89893 -1.15594,1.48902 -2.31283,1.74896 -0.52217,0.11732 -0.54327,0.10847 -0.68059,-0.28545 z"
         style="opacity:1;fill:#ffe680;fill-opacity:1;fill-rule:nonzero;stroke:#222b00;stroke-width:0.05050762;stroke-miterlimit:4;stroke-dasharray:none;stroke-opacity:1" />
      <path
         inkscape:connector-curvature="0"
         id="path1335"
         d="m 486.87033,115.18834 c -0.24873,-0.35511 -0.26627,-1.36176 -0.0705,-4.04612 0.61782,-8.47117 2.57586,-14.409202 6.34801,-19.251264 2.09361,-2.687436 5.36596,-4.489833 10.41925,-5.738895 1.23114,-0.30431 1.65676,-0.351695 2.61946,-0.291633 2.16118,0.134833 4.08045,1.01511 5.82374,2.671063 2.23271,2.120858 3.91168,5.57136 4.31853,8.875181 0.0795,0.645634 0.24091,1.733423 0.35866,2.41731 0.42624,2.475598 0.0997,5.165528 -1.09801,9.046448 -0.68206,2.21 -0.66232,2.12773 -0.48402,2.01753 0.19664,-0.12153 0.19638,-0.11724 -0.062,1.02969 -0.26355,1.16994 -0.89082,2.6041 -1.18902,2.71853 -0.31086,0.11929 -0.52179,-0.16182 -0.86689,-1.15535 -0.26425,-0.76077 -0.30933,-1.20878 -0.36302,-3.60814 -0.0654,-2.9237 -0.15674,-3.34087 -0.73138,-3.34087 -0.46436,0 -2.21282,1.92371 -2.96033,3.25706 -0.7275,1.29765 -1.09184,1.79547 -1.22037,1.66748 -0.0479,-0.0477 -0.14056,-0.64908 -0.20587,-1.33635 -0.0653,-0.68727 -0.24487,-1.88101 -0.39903,-2.65275 -0.41521,-2.07848 -0.48879,-3.76664 -0.20698,-4.74866 0.12581,-0.43845 0.31012,-0.92407 0.40958,-1.07916 0.36484,-0.56894 0.63484,-1.815201 0.56356,-2.601265 -0.21162,-2.333868 -2.54837,-4.402753 -4.99557,-4.422937 -1.24266,-0.01025 -2.04401,0.31757 -3.10588,1.270562 -0.50489,0.453126 -1.25224,1.110172 -1.66077,1.460101 -0.95084,0.814437 -2.28051,2.58683 -3.08416,4.111049 -0.59796,1.13409 -3.17888,6.77133 -3.42474,7.4803 -0.0637,0.18374 -0.27099,0.78815 -0.46059,1.34312 -0.52276,1.53017 -1.48427,3.12989 -2.54303,4.23103 -1.00548,1.04572 -1.37029,1.18858 -1.72865,0.67694 z"
         style="opacity:1;fill:#ffe680;fill-opacity:1;fill-rule:nonzero;stroke:#222b00;stroke-width:0.05050762;stroke-miterlimit:4;stroke-dasharray:none;stroke-opacity:1" />
      <path
         inkscape:connector-curvature="0"
         id="path1337"
         d="m 513.97792,126.60051 c -1.35004,-0.87433 -2.99522,-2.88963 -3.9587,-4.84929 -1.61918,-3.29332 -1.94945,-4.4832 -1.78724,-6.43893 0.20443,-2.46458 1.19961,-3.83585 2.50087,-3.44599 0.50074,0.15003 0.52021,0.18 0.85615,1.31834 0.94815,3.21276 1.43927,4.30523 1.93541,4.30523 0.3997,0 0.62827,-0.46439 1.34829,-2.73929 1.14244,-3.60956 1.30847,-4.02208 1.88021,-4.67161 0.29395,-0.33395 0.64494,-0.60718 0.77996,-0.60718 0.13503,0 0.46193,0.25285 0.72647,0.56189 1.28421,1.50032 1.71285,5.82745 0.59035,5.95975 -0.25213,0.0297 -0.44933,-0.0814 -0.74782,-0.42136 -0.22297,-0.25395 -0.43419,-0.54272 -0.46938,-0.64172 -0.0352,-0.099 -0.10311,-0.14407 -0.15096,-0.10017 -0.0478,0.0439 0.0412,0.24282 0.19793,0.44204 0.759,0.96491 1.15613,3.03091 0.92024,4.78744 -0.18019,1.34178 -0.38753,2.183 -1.09584,4.44604 -0.45071,1.43998 -0.62223,1.81156 -1.00235,2.17156 -0.38572,0.3653 -0.55997,0.43431 -1.09654,0.43431 -0.51272,0 -0.79282,-0.1003 -1.42705,-0.51106 z"
         style="opacity:1;fill:#ffe680;fill-opacity:1;fill-rule:nonzero;stroke:#222b00;stroke-width:0.05050762;stroke-miterlimit:4;stroke-dasharray:none;stroke-opacity:1" />
      <path
         inkscape:connector-curvature="0"
         id="path1339"
         d="m 545.427,132.19113 c -0.52004,-0.60755 -0.73305,-1.0161 -1.22553,-2.35051 -0.77602,-2.10263 -2.66613,-4.29139 -6.86075,-7.94479 -1.85028,-1.61154 -1.9244,-1.69658 -2.49822,-2.86634 -0.83867,-1.70965 -1.06461,-2.57401 -1.06613,-4.07868 -0.001,-1.00071 0.0571,-1.39718 0.27449,-1.87239 0.57386,-1.25443 1.82181,-2.05758 3.59379,-2.31285 1.23165,-0.17744 1.698,-0.009 2.1111,0.76327 0.27491,0.51383 0.29363,0.72278 0.29363,3.27669 0,2.09258 0.0397,2.74121 0.17049,2.7852 0.17419,0.0586 0.77386,-0.51957 1.66656,-1.60678 1.06409,-1.29595 2.28257,-1.31384 3.50991,-0.0515 1.5465,1.59058 2.8528,5.67284 2.70063,8.43964 -0.0837,1.52252 -0.70249,6.05381 -0.95459,6.99078 -0.40055,1.48867 -0.93091,1.74476 -1.71538,0.82829 z"
         style="opacity:1;fill:#ffe680;fill-opacity:1;fill-rule:nonzero;stroke:#222b00;stroke-width:0.05050762;stroke-miterlimit:4;stroke-dasharray:none;stroke-opacity:1" />
      <path
         inkscape:connector-curvature="0"
         id="path1341"
         d="m 510.10912,110.07922 c -0.38611,-0.38611 -0.40375,-0.57231 -0.0912,-0.96242 0.2547,-0.31787 1.07841,-0.84644 1.32031,-0.84723 0.20747,-7.9e-4 0.44738,0.72386 0.44738,1.35109 0,0.36735 -0.0723,0.54857 -0.25848,0.64823 -0.45465,0.24332 -1.06693,0.16143 -1.41803,-0.18967 z"
         style="opacity:1;fill:#ffe680;fill-opacity:1;fill-rule:nonzero;stroke:#222b00;stroke-width:0.05050762;stroke-miterlimit:4;stroke-dasharray:none;stroke-opacity:1" />
      <path
         transform="matrix(0.26458333,0,0,0.26458333,479.66204,46.67968)"
         inkscape:connector-curvature="0"
         id="path5087"
         d="m 125.50685,384.81042 c -0.14597,-0.59031 -0.40174,-2.26391 -0.56837,-3.71911 -0.16664,-1.45519 -0.51902,-3.27347 -0.78308,-4.04061 -0.65298,-1.89701 -0.84862,-4.58883 -0.46844,-6.44555 0.64349,-3.1427 1.72929,-5.33088 5.24392,-10.56797 3.52589,-5.25387 4.6101,-7.24396 4.6101,-8.46196 v -0.7065 l -1.70464,0.58092 c -1.98525,0.67655 -2.91127,0.73911 -3.33754,0.22549 -1.33152,-1.60438 4.72898,-8.17069 9.48167,-10.27304 1.279,-0.56576 2.03345,-0.59698 6.48661,-0.26847 2.84216,0.20966 3.41625,0.33261 4.85076,1.03881 3.48899,1.71763 4.73479,4.82932 2.57677,6.4361 -0.94515,0.70373 -3.6971,0.72649 -5.91613,0.049 -1.49029,-0.45503 -1.57856,-0.52549 -1.58181,-1.26269 -0.009,-1.97617 -0.78446,-2.53659 -1.60004,-1.15592 -0.75632,1.28035 -2.32322,5.95202 -4.0752,12.15015 -0.91767,3.24647 -2.079,7.23627 -2.58075,8.86622 l -0.91228,2.96356 -0.56437,-1.38862 c -0.75579,-1.85956 -1.27438,-2.60916 -2.04937,-2.96227 -0.58341,-0.26582 -0.71724,-0.21627 -1.36055,0.50372 -1.02751,1.14998 -1.84937,4.00988 -3.39377,11.80966 -0.74257,3.75019 -1.42817,7.01741 -1.52356,7.26047 -0.28091,0.71577 -0.54684,0.51347 -0.82993,-0.63134 z"
         style="opacity:1;fill:#ffffff;fill-opacity:1;fill-rule:nonzero;stroke:none;stroke-width:0.85902739;stroke-miterlimit:4;stroke-dasharray:none;stroke-dashoffset:0;stroke-opacity:1" />
      <path
         transform="matrix(0.26458333,0,0,0.26458333,479.66204,46.67968)"
         inkscape:connector-curvature="0"
         id="path5089"
         d="m 138.96986,394.68806 c -1.20668,-1.05948 -2.96132,-4.69189 -3.10534,-6.42861 -0.16402,-1.97791 0.29838,-2.96748 2.48868,-5.32586 1.08487,-1.16812 2.22621,-2.64798 2.53632,-3.28858 l 0.56383,-1.16472 0.56671,0.65884 c 0.82538,0.95956 1.62141,3.285 1.94026,5.66806 0.65566,4.90031 -1.15639,10.67296 -3.35026,10.67296 -0.46709,0 -1.06926,-0.29079 -1.6402,-0.79209 z"
         style="opacity:1;fill:#ffffff;fill-opacity:1;fill-rule:nonzero;stroke:none;stroke-width:0.85902739;stroke-miterlimit:4;stroke-dasharray:none;stroke-dashoffset:0;stroke-opacity:1" />
      <path
         transform="matrix(0.26458333,0,0,0.26458333,479.66204,46.67968)"
         inkscape:connector-curvature="0"
         id="path5091"
         d="m 131.32432,380.43982 c -0.30869,-0.21622 -0.56126,-0.57558 -0.56126,-0.79857 0,-0.55362 1.22014,-2.59638 1.55082,-2.59638 0.4656,0 1.73233,1.54659 1.72831,2.11015 -0.005,0.75397 -0.27174,1.0981 -1.091,1.40959 -0.9095,0.34578 -0.96062,0.34186 -1.62687,-0.12479 z"
         style="opacity:1;fill:#ffffff;fill-opacity:1;fill-rule:nonzero;stroke:none;stroke-width:0.85902739;stroke-miterlimit:4;stroke-dasharray:none;stroke-dashoffset:0;stroke-opacity:1" />
      <path
         transform="matrix(0.26458333,0,0,0.26458333,479.66204,46.67968)"
         inkscape:connector-curvature="0"
         id="path5093"
         d="m 132.15202,398.08632 c -0.2778,-0.0622 -1.02633,-0.27931 -1.66341,-0.48238 l -1.15832,-0.36922 -0.51593,-2.24195 c -0.82037,-3.56487 -0.44983,-4.35166 1.74769,-3.71095 3.35271,0.97752 5.87409,3.76217 5.19903,5.74189 -0.35381,1.0376 -1.80873,1.46597 -3.60906,1.06261 z"
         style="opacity:1;fill:#ffffff;fill-opacity:1;fill-rule:nonzero;stroke:none;stroke-width:0.85902739;stroke-miterlimit:4;stroke-dasharray:none;stroke-dashoffset:0;stroke-opacity:1" />
      <path
         transform="matrix(0.26458333,0,0,0.26458333,479.66204,46.67968)"
         inkscape:connector-curvature="0"
         id="path5095"
         d="m 120.82768,394.7427 c -3.2572,-7.1256 -3.85883,-15.72284 -1.57099,-22.44936 0.84034,-2.47072 1.20962,-3.03885 1.01521,-1.56192 -0.30624,2.32657 0.49831,6.45592 3.02605,15.53109 2.16779,7.78285 2.01572,10.48033 -0.59081,10.48033 -0.96033,0 -0.96975,-0.01 -1.87946,-2.00014 z"
         style="opacity:1;fill:#ffffff;fill-opacity:1;fill-rule:nonzero;stroke:none;stroke-width:0.85902739;stroke-miterlimit:4;stroke-dasharray:none;stroke-dashoffset:0;stroke-opacity:1" />
      <path
         transform="matrix(0.26458333,0,0,0.26458333,479.66204,46.67968)"
         inkscape:connector-curvature="0"
         id="path5097"
         d="m 128.51657,401.5627 c -0.27365,-0.17327 -0.18829,-0.30805 0.38185,-0.60288 0.64153,-0.33175 0.82165,-0.33395 1.42573,-0.0174 0.3803,0.19926 0.69144,0.47229 0.69144,0.60675 0,0.30527 -2.02102,0.31624 -2.49902,0.0136 z"
         style="opacity:1;fill:#ffffff;fill-opacity:1;fill-rule:nonzero;stroke:none;stroke-width:0.85902739;stroke-miterlimit:4;stroke-dasharray:none;stroke-dashoffset:0;stroke-opacity:1" />
      <path
         transform="matrix(0.26458333,0,0,0.26458333,479.66204,46.67968)"
         inkscape:connector-curvature="0"
         id="path5099"
         d="m 146.54695,386.64174 c -0.2263,-0.36616 1.60522,-2.0187 2.04873,-1.84851 0.54047,0.2074 0.41438,1.03831 -0.21809,1.43716 -0.85651,0.54015 -1.64196,0.71664 -1.83064,0.41135 z"
         style="opacity:1;fill:#ffffff;fill-opacity:1;fill-rule:nonzero;stroke:none;stroke-width:0.85902739;stroke-miterlimit:4;stroke-dasharray:none;stroke-dashoffset:0;stroke-opacity:1" />
      <path
         transform="matrix(0.26458333,0,0,0.26458333,479.66204,46.67968)"
         inkscape:connector-curvature="0"
         id="path5101"
         d="m 220.38875,409.40797 c -2.76559,-1.75389 -5.0989,-6.58037 -6.18387,-12.79139 -0.59627,-3.41346 -0.60151,-9.55639 -0.0107,-12.58307 0.91518,-4.68864 3.10083,-9.01254 5.38925,-10.66167 0.52633,-0.37929 1.46835,-1.36874 2.09339,-2.19879 1.41403,-1.87784 3.7686,-4.05069 5.42957,-5.01052 0.69448,-0.40132 1.34563,-0.73074 1.447,-0.73204 0.10137,-0.001 -0.3104,0.76471 -0.91504,1.70226 -2.59626,4.02573 -4.53804,9.09935 -5.49169,14.34904 -0.73668,4.05536 -0.79537,11.32234 -0.12413,15.37146 0.54748,3.30258 1.51531,6.75752 2.77219,9.89616 0.50749,1.26729 0.92271,2.3811 0.92271,2.47513 0,0.35611 -1.80028,0.90283 -2.97291,0.90283 -0.90882,0 -1.51164,-0.1841 -2.35574,-0.7194 z"
         style="opacity:1;fill:#ffffff;fill-opacity:1;fill-rule:nonzero;stroke:none;stroke-width:0.85902739;stroke-miterlimit:4;stroke-dasharray:none;stroke-dashoffset:0;stroke-opacity:1" />
      <path
         transform="matrix(0.26458333,0,0,0.26458333,479.66204,46.67968)"
         inkscape:connector-curvature="0"
         id="path5103"
         d="m 226.90117,399.61021 c -0.46878,-0.46878 0.29835,-5.64528 0.83659,-5.64528 0.38962,0 0.88341,1.68288 0.87048,2.96668 -0.0164,1.63331 -1.08137,3.30429 -1.70707,2.6786 z"
         style="opacity:1;fill:#ffffff;fill-opacity:1;fill-rule:nonzero;stroke:none;stroke-width:0.85902739;stroke-miterlimit:4;stroke-dasharray:none;stroke-dashoffset:0;stroke-opacity:1" />
      <path
         transform="matrix(0.26458333,0,0,0.26458333,479.66204,46.67968)"
         inkscape:connector-curvature="0"
         id="path5105"
         d="m 232.39664,391.07068 c -0.6075,-0.60751 -0.66415,-0.80783 -0.52192,-1.84557 0.30333,-2.21302 2.90691,-6.5848 3.75862,-6.31124 0.17152,0.0551 0.68119,0.7124 1.1326,1.46069 0.99694,1.65261 1.13233,3.64671 0.33623,4.95229 -0.66179,1.08532 -2.06705,2.10772 -3.13526,2.28106 -0.7371,0.11962 -1.00512,0.0279 -1.57027,-0.53723 z"
         style="opacity:1;fill:#ffffff;fill-opacity:1;fill-rule:nonzero;stroke:none;stroke-width:0.85902739;stroke-miterlimit:4;stroke-dasharray:none;stroke-dashoffset:0;stroke-opacity:1" />
      <path
         transform="matrix(0.26458333,0,0,0.26458333,479.66204,46.67968)"
         inkscape:connector-curvature="0"
         id="path5107"
         d="m 230.61268,378.4247 c -0.53065,-0.80989 -0.35448,-4.04447 0.34262,-6.29035 l 0.46598,-1.50126 0.60464,1.37499 c 0.62233,1.41521 0.96168,4.20899 0.65814,5.41838 -0.1708,0.68052 -0.99234,1.63872 -1.405,1.63872 -0.1357,0 -0.43557,-0.28822 -0.66638,-0.64048 z"
         style="opacity:1;fill:#ffffff;fill-opacity:1;fill-rule:nonzero;stroke:none;stroke-width:0.85902739;stroke-miterlimit:4;stroke-dasharray:none;stroke-dashoffset:0;stroke-opacity:1" />
      <path
         transform="matrix(0.26458333,0,0,0.26458333,479.66204,46.67968)"
         inkscape:connector-curvature="0"
         id="path5109"
         d="m 236.64127,374.76239 c -0.31164,-0.12399 -0.80136,-0.59871 -1.08826,-1.05492 -0.6727,-1.06969 -0.52751,-2.67636 0.40883,-4.52415 l 0.67646,-1.33492 0.51099,0.62076 c 1.46993,1.78571 2.28283,5.09216 1.44755,5.88782 -0.53622,0.51078 -1.29526,0.66814 -1.95557,0.40541 z"
         style="opacity:1;fill:#ffffff;fill-opacity:1;fill-rule:nonzero;stroke:none;stroke-width:0.85902739;stroke-miterlimit:4;stroke-dasharray:none;stroke-dashoffset:0;stroke-opacity:1" />
      <path
         transform="matrix(0.26458333,0,0,0.26458333,479.66204,46.67968)"
         inkscape:connector-curvature="0"
         id="path5111"
         d="m 243.31962,373.85478 c -0.2913,-0.29129 -0.2009,-1.2265 0.16721,-1.72992 0.32813,-0.44874 0.36585,-0.43795 0.80337,0.22978 0.34122,0.52077 0.39175,0.80753 0.19684,1.11707 -0.2898,0.46023 -0.8925,0.658 -1.16742,0.38307 z"
         style="opacity:1;fill:#ffffff;fill-opacity:1;fill-rule:nonzero;stroke:none;stroke-width:0.85902739;stroke-miterlimit:4;stroke-dasharray:none;stroke-dashoffset:0;stroke-opacity:1" />
      <path
         transform="matrix(0.26458333,0,0,0.26458333,479.66204,46.67968)"
         inkscape:connector-curvature="0"
         id="path5113"
         d="m 216.77033,370.33457 c -0.49444,-0.49444 -0.50038,-0.94325 -0.0247,-1.86319 0.37104,-0.71752 2.31046,-2.53819 2.70373,-2.53819 0.28731,0 0.25667,1.45282 -0.0542,2.57229 -0.23476,0.84523 -1.48329,2.22594 -2.01285,2.22594 -0.11832,0 -0.3937,-0.17858 -0.61197,-0.39685 z"
         style="opacity:1;fill:#ffffff;fill-opacity:1;fill-rule:nonzero;stroke:none;stroke-width:0.85902739;stroke-miterlimit:4;stroke-dasharray:none;stroke-dashoffset:0;stroke-opacity:1" />
      <path
         transform="matrix(0.26458333,0,0,0.26458333,479.66204,46.67968)"
         inkscape:connector-curvature="0"
         id="path5115"
         d="m 170.79035,428.64767 c -2.77993,-2.05316 -5.86209,-5.09815 -6.80764,-6.72555 -0.38698,-0.66603 -0.66138,-1.24953 -0.60978,-1.29666 0.12158,-0.11106 8.97676,1.72709 10.95295,2.27361 1.98343,0.54851 3.82701,1.49299 4.17181,2.13724 0.37975,0.70958 0.1181,1.36204 -0.97097,2.42114 -0.74215,0.72173 -4.03523,2.87956 -4.38132,2.87091 -0.0452,-10e-4 -1.10499,-0.75744 -2.35505,-1.68069 z"
         style="opacity:1;fill:#ffffff;fill-opacity:1;fill-rule:nonzero;stroke:none;stroke-width:0.85902739;stroke-miterlimit:4;stroke-dasharray:none;stroke-dashoffset:0;stroke-opacity:1" />
    </g>
  </g>
</svg>
