<?xml version="1.0" encoding="UTF-8"?>
<!-- Created with Inkscape (http://www.inkscape.org/) -->
<svg width="696.44" height="518.78" version="1.1" viewBox="0 0 696.44084 518.77581" xmlns="http://www.w3.org/2000/svg" xmlns:cc="http://creativecommons.org/ns#" xmlns:dc="http://purl.org/dc/elements/1.1/" xmlns:rdf="http://www.w3.org/1999/02/22-rdf-syntax-ns#">
 <metadata>
  <rdf:RDF>
   <cc:Work rdf:about="">
    <dc:format>image/svg+xml</dc:format>
    <dc:type rdf:resource="http://purl.org/dc/dcmitype/StillImage"/>
    <dc:title/>
    <cc:license rdf:resource="http://creativecommons.org/licenses/by/4.0/"/>
   </cc:Work>
   <cc:License rdf:about="http://creativecommons.org/licenses/by/4.0/">
    <cc:permits rdf:resource="http://creativecommons.org/ns#Reproduction"/>
    <cc:permits rdf:resource="http://creativecommons.org/ns#Distribution"/>
    <cc:requires rdf:resource="http://creativecommons.org/ns#Notice"/>
    <cc:requires rdf:resource="http://creativecommons.org/ns#Attribution"/>
    <cc:permits rdf:resource="http://creativecommons.org/ns#DerivativeWorks"/>
   </cc:License>
  </rdf:RDF>
 </metadata>
 <g transform="translate(-180.79 -272.38)">
  <path d="m420.87 786.17c-16.739-0.86056-35.415-5.2831-49.622-6.3496-20.23-2.3857-42.486-3.1712-60.037-9.9105-0.91369-0.0949-10.04-4.4298-12.887-7.0455-18.505-12.146-27.914-32.936-36.368-52.475-8.3708-16.86-17.002-35.322-16.668-55.288-0.22422-20.457 1.8638-41.424 2.1073-61.407 4.037-32.488 2.7581-65.184 11.69-96.62-9.0128-4.0842-27.058-3.9488-33.854-15.495-10.045-21.729 5.7319-52.872 26.356-47.464 9.7868 0.47771 20.048 4.1748 27.552 8.5578 1.8293-2.4657 3.1685-8.1495 6.505-12.429 18.53-28.27 8.966-15.601 22.605-32.258 5.6563-5.0452 11.835-12.74 15.62-15.994 4.6045-4.1598 6.962-6.5024 10.752-9.3729 11.236-8.8107 19.936-15.995 27.394-19.713 21.591-12.943 22.41-12.961 31.422-17.361 7.5589-1.0106 8.8857-1.5621 4.9197-6.9446-9.2268-3.7501-5.7694-13.041 3.9974-7.9486-5.5888-5.3299-15.188 2.8194-24.483 1.4028-23.175 10.007-44.482 24.302-64.568 39.927-11.313 6.6134-20.418 18.446-33.786 19.27-6.8325 2.8248-15.366 10.299-21.306 13.297-6.9032 1.6577-16.948 10.679-23.546 18.176-7.7096 6.145-9.4995 8.974-15.504 16.538-5.0111 22.888-10.335 48.709-6.462 72.939-1.1598 15.993 10.263 32.819 5.6659 49.981-5.1617 22.239 1.7401 44.701 0.8996 67.282 3.4629 13.222 14.569 30.618 3.7847 41.655-1.1375-0.89818-8.8254 1.8452-10.234-6.2292-7.6941-5.4214-14.347 3.2908-22.806 3.6579 0.66634 10.459-9.076 17.764-6.1252 1.5351 4.9065-12.159 2.8688-27.857 3.2284-35.475s-0.56952-7.2822-0.6946-25.356c-0.0405-8.7815 2.0539-18.595 2.5283-25.049s-0.5308-45.386-0.10924-34.132c1.3216-20.884 0.97907-41.033 6.5126-59.546 2.6298-9.335 3.7776-16.813 5.3045-23.561s4.6478-13.07 5.6786-18.728c1.181-1.9728 2.0084-10.255 4.9412-17.318 3.1658-12.866 9.7442-22.806 12.468-32.774 10.138-18.299 12.534-19.458 16.941-25.425 4.8402-5.8281 6.5042-6.2794 10.623-11.364 7.917-7.9342 20.641-11.878 29.61-17.46 19.205-8.062 42.373-16.306 65.057-21.667 15.655-2.5569 32.89-6.8181 47.908-0.7923 6.7958-5.8883 17.622 10.902 21.069-3.1196 4.7699-7.9455 14.656-6.6619 21.528-12.095 9.7699-4.8662 18.883-12.815 28.454-14.781 20.44-2.9405 38.752-3.9399 58.539-4.9768 9.6677-1.2703 28.187-2.2111 41.62-1.0414 10.576 0.92093 6.0356 0.72867 16.69 1.7793 9.4174 1.5208 20.084 1.5199 29.406 2.929 24.114-2.3778 44.306 6.0338 61.068 11.713 5.7398 3.2266 13.738 6.5028 17.058 9.7355 9.3051 3.5438 28.762 24.843 25.558 20.243 3.3048 4.631 7.9326 8.9675 12.931 15.083 3.9815 5.5444 8.3396 10.775 12.781 14.357 25.649 24.634 45.373 49.802 56.668 78.102 6.0231 12.352 13.346 30.383 22.048 39.551 4.1715 10.712 9.8505 15.501 13.985 29.078-0.2878 0.1334 8.3896 32.157 8.7472 32.549 3.8788 16.209 11.011 48.304 8.0399 34.436 4.8958 23.513 11.008 33.305 11.973 37.58s1.2604 11.595 1.5493 15.678c0.64719 11.039-1.9602 28.413 1.7048 36.208 1.329 7.627 3.8816 21.066 4.9127 26.312 1.066-0.61127 2.0709 0.88974 2.6472 2.4371 1.636 5.186 0.37535 1.3066 1.7503 5.6749 0.34272 1.7357-0.25906 3.8089-2.1192 2.6948-4.8037 2.3879-20.298-1.7532-29.307 1.4755-10.282-0.51884-22.632 0.8632-31.749 2.5409-8.3097 2.0611-24.984 0.78965-32.595 4.6311-9.867 1.6071-22.856-1.3568-30.807-9.2574-6.2748-2.5141-14.14-6.7736-6.6127-13.425 8.8269-13.16 21.159-20.942 27.235-36.348 4.8098-12.156 7.3352-24.08 10.108-36.36 8.3173-13.601 19.478-25.096 28.784-37.651 0.23316-12.134 3.7512-23.969-0.3556-36.252-2.4806-13.222 4.0266-27.548-3.5331-40.288-3.7834-17.297-8.3318-36.486-23.447-47.86-6.3233-9.0766-11.055-25.394-18.82-29.578-1.3187 12.519-9.1182 24.865-18.795 34.297 0.0121 9.8788 9.2078 19.478 12.443 28.851 8.5978 14.263 16.969 28.811 25.544 43.751 4.6643 12.573 8.6338 25.864 8.4056 39.198-0.61794 13.339-4.8134 29.012-10.046 40.147-0.44754 4.0106-5.0857 12.372-7.0503 17.604-2.1365 6.2232-8.5362 15.203-12.419 21.531-5.0046 8.6502-12.519 18.535-19.598 26.805-6.4338 6.0295-14.64 15.806-23.082 22.113-8.164 6.5902-17.302 13.654-23.705 18.038-22.916 15.986-47.409 29.233-74.241 39.26-19.631 7.6533-43.148 12.465-61.081 20.204-32.896 9.1645-65.378 24.215-100.53 23.653-11.93-0.18126-25.414-0.15412-36.361-2.4765zm34.274-3.5775c39.436 0.21634 74.329-16.195 111.12-27.678 36.604-10.687 72.982-22.745 104.88-43.132 26.239-15.704 50.912-35.771 69.714-58.467 18.952-23.234 32.826-52.44 40.241-81.192 6.463-35.236-15.664-64.418-31.795-93.162-5.0298-7.6991-8.9654-20.572-14.907-25.014-14.22 8.4217-23.447-4.1185-3.2855-5.6832 3.5262-4.5857-5.4532-11.946-8.6221-16.559-22.466-20.698-47.856-38.906-73.098-56.521-13.237-8.3123-31.294-14.317-42.62-20.318s-15.421-5.6783-25.841-20.198c6.1081-4.8724 8.7214 2.7956 12.227 3.6424 17.067 15.04 41.009 19.187 59.577 32.27 5.5775 4.0872 12.962 8.5929 18.032 13.496 8.9788 5.2021 19.323 13.471 27.333 19.684 4.1272 5.6514 9.1096 3.2107 12.981-1.1179 11.128-6.558 24.069-4.0329 36.174-5.6505-11.908-11.258-22.854-22.797-32.543-35.941-19.386-16.017-42.946-26.439-65.607-37.149-10.549-4.956-22.017-7.796-32.849-12.689-20.017-9.6163-40.512-19.946-62.926-22.241-21.104 1.0969-44.096-3.5724-63.57 7.0829-20.963 8.3207-42.511 16.217-63.657 24.078-7.7486 0.31278-12.242 12.123-18.415 7.9973 0.68828 5.7936 6.7946-0.36029 10.594-1.9578 17.585-4.1825 35.014-8.6221 52.116-14.317 24.788-5.0899 48.646-9.5405 74.095-12.544 5.3748-1.0479 17.25-0.11111 25.023 1.114 7.8749 0.23228 16.844 11.617 4.5982 9.5198-21.436-13.612-48.684 0.0445-71.732 1.208-28.634 3.8612-55.368 14.409-83.352 20.873-13.204 6.1606-26.455 7.7708-39.676 16.018-11.726 6.134-21.736 13.754-31.824 19.892-29.24 20.132-46.867 46.265-64.051 77.341 12.581 6.2646 24.692 12.69 37.211 19.184-0.75805 2.1427-8.1328 2.546-14.603-0.9697-8.4863-3.3335-17.088-11.604-25.374-11.728-17.135 37.356-25.373 78.613-25.265 119.97-1.4439 36.813-9.4414 75.094 0.86833 111.18 10.75 22.952 19.186 46.095 34.739 65.821 23.78 25.187 61.798 22.072 93.423 26.906 23.484 3.832 46.935 6.2952 70.664 6.9551zm61.522-137.51c-54.729-9.4852-128.72-3.4624-160-50.355-3.5138-6.5853 10.603-14.387 7.7043-3.97 3.4116 15.287 20.251 23.042 33.367 29.358 32.213 11.867 68.396 10.437 102.13 16.964 24.565 3.8392 52.354 3.6313 74.804-3.9377 14.632-4.1032 29.56-11.804 42.34-21.234 12.172-8.0652 23.804-17.15 36.546-24.404 11.11 1.8191-0.10565 7.76-4.7365 9.4653-16.783 9.6631-35.956 29.075-53.398 34.89-24.427 11.418-51.617 14.48-78.767 13.224zm-129.82-113.88c-24.134-1.28-44.376-17.767-47.8-41.712-6.7268-22.19-9.5186-47.357 4.1898-67.299 7.587-14.162 21.592-22.509 37.69-22.552 16.803-3.9841 37.753-6.2124 52.569 3.786-4.0554 8.6725-21.667-6.8159-31.536-0.8018-15.215 1.2899-32.503 2.2028-44.698 11.717-7.4229 9.7997-16.57 20.718-16.92 33.56 11.34 2.7197 27.46 5.7628 35.25 10.662 2.9382-13.183 7.1858-14.541-5.9763-26.338-11.245-10.256 2.8914-10.515 7.2004-0.3127 5.1349 4.865 15.991 24.907 20.279 10.416 4.9722-10.7 15.792-16.088 24.668-22.462-19.972-3.7729-3.8282-11.104 6.8624-2.8083 19.452 9.667 23.161 32.183 26.022 51.758 11.116 3.2375 53.613 8.9179 52.824-6.8885-3.4051-19.547 0.46157-47.397 22.806-53.881 10.61-2.375 21.91-13.106 33.645-8.6072 5.8037 7.0036-9.9956 5.0122-14.247 8.0023-8.0197 2.4635-16.91 6.2635-23.904 8.0793 8.9786 0.65121 14.863 11.266 22.73 15.296 2.4788 1.9878 6.4214 6.0265 9.761 9.9888-8.3753 6.9259-10.146-5.6028-17.541-8.4719-6.6243-2.7385-13.685-17.154-17.397-13.816-9.4484 7.7088-9.9023 22.383-10.704 33.032 1.4248 8.2072-0.1552 15.253 7.0258 20.488-6.9596 7.8538 0.59149 6.9835 0.2542 17.955 2.3459 6.3709 5.3745 6.5461 8.1139 10.874 12.421 9.9527 28.444 21.51 45.087 12.884 11.109-5.5101 28.31-1.2747 33.233-15.405 9.0628-19.78 1.5782-42.109-2.5648-62.04-2.0019-9.7634-11.548-19.474-21.821-19.116-5.9304 7.4167-10.528 15.772-15.816 23.605 5.4758 1.2704-1.6587 14.703 6.3873 3.853 4.4377-7.6418 7.4023-17.967 15.716-22.147 8.0131 3.6562-7.3025 12.614-7.3252 19.721-3.1539 5.665-7.505 12.618 1.0375 14.135 11.613 5.9921 20.921 20.571 11.928 32.828-8.3513 16.562-38.107 19.198-43.834-1.1564-7.4107-12.831-8.0874-32.688 2.7979-43.404 6.6828-1.7467 6.9351-6.1281 11.312-12.546 2.3232-6.5732 18.745-19.775 1.9702-15.548-16.111-7.6226 22.308-7.8533 28.402-2.0507 8.9004 6.7637 17.71 14.571 17.504 26.948-0.0833 13.445 8.0324 19.295 20.226 11.319 17.841-7.4475 30.448-20.048 49.969-24.019 6.4619-2.7325 14.677-13.792 19.029-5.3218-11.685 10.312-27.763 12.741-40.993 20.31-12.428 9.1343-27.832 16.846-43.699 19.975 1.3462 17.433 2.4356 42.148-17.633 49.82-18.041 1.2313-37.971 16.562-55.228 4.2994-14.665-7.1151-28.88-16.969-31.546-33.6-4.9098-21.394-38.065 1.5546-54.268-7.5335-1.2309 11.517-0.24744 34.593-19.328 41.134-14.949 9.45-33.066 16.307-51.711 13.395zm5.292-5.6156c21.577 1.6102 43.11-9.956 57.281-24.762 5.3862-10.641-4.9399-25.667-1.6315-30.558-0.93085-16.032-4.7656-37.392-20.022-47.544-10.015 7.1736-22.857 13.961-25.991 26.835 19.724 6.101 24.133 31.106 20.632 48.469-11.943 11.25-36.449 9.3034-41.282-7.9378-6.5676-8.5531 1.189-24.185-11.177-27.637-17.754-9.663-41.002-14.306-27.693 14.138 3.7414 16.785 7.5663 34.023 23.355 42.369 8.3055 4.0422 17.262 6.2018 26.528 6.627zm13.824-27.661c16.309 2.1495 11.552-17.084 7.8078-26.773-0.81818-13.387-22.145-22.284-29.679-14.541-2.4004-0.93533-3.6629 3.3376 1.8264 2.8912-5.1428 2.4138-2.4402 16.421 0.1513 24.674 1.6566 9.8023 10.105 16.058 19.894 13.749zm-11.235-18.084c-14.295-11.44 16.944-13.499 8.0886-1.3491-1.9986 1.4693-6.1902 4.1219-8.0886 1.3491zm176.83 16.618c14.929 0.12221 25.561-20.112 13.245-30.386-7.8725-6.961-18.603-10.679-26.64-16.797-10.004 9.9485-7.3616 27.552-0.6826 38.945 2.0191 5.6818 7.8505 9.7882 14.077 8.2382zm-8.8613-20.298c-11.507-8.7762 4.8569-17.331 7.1103-4.6781 0.28465 3.2309-4.4534 5.5532-7.1103 4.6781zm3.0319-3.0897c-0.48559-0.66013-0.87194 1.053 0 0zm-0.742-1.2086c-0.0813-3.8669-1.4302 3.641 0 0zm-1.9658-0.7116c-0.35197-1.2831-0.86793 0.6217 0 0zm-112.8-10.494c-0.63818-0.90174-0.31609 0.92649 0 0zm-76.238-28.07c-4.7898-6.135-5.0438-3.572 0 0zm-28.666-7.2035c10.158-16.111-5.4675 9.9095-5e-4 -4e-4zm13.366 96.982c0.66346-0.90844 0.66346 0.90844 0 0zm-32.278-55.412c-6.6056-11.369 16.608 0.27882 0 0zm119.67-65.217c0.63818-0.90174 0.31609 0.92649 0 0zm224.04-17.955c-0.52014-0.71879 1.1309 0.35285 0 0zm-4.1976-3.7132c1.1346-0.36643 0.1176 0.48883 0 0zm112 319.68c-1.0302-0.5376-0.24039 0.57301 0 0zm-0.1891-6.3111c16.541-3.9986 33.422-4.385 50.172-6.9051 18.754-1.3594 45.45 3.1593 37.643-4.7161-2.3865-19.524-9.3411-38.428-5.8738-58.546 1.8408-11.819-6.1559-19.617-7.1268-30.347-12.656-38.168-18.537-82.754-35.133-115.63-9.9451-16.7-22.016-33.877-29.843-52.558-7.5195-15.692-14.812-31.063-26.807-44.244-15.837-17.748-34.729-32.482-48.109-52.41-20.398-20.875-48.56-40.28-80.257-40.65-55.669-8.8891-113.25-10.289-168.68 0.1128-13.938 5.9303-24.964 16.815-39.87 20.619-9.537 11.302-14.345 14.126 1.2315 6.0372 12.303-2.4681 22.087-10.97 34.618-12.328 9.6992-5.6061 22.116-7.1223 31.126-14.46 23.953-2.6499 56.457-4.702 69.357-2.4614s4.892 0.50367 11.41 2.7242 8.6508 3.5633 16.148 5.0008c7.2276 3.0496 16.96 8.7828 21.374 9.9261 21.152 10.113 39.001 15.266 58.943 25.015 16.747 8.3919 46.365 26.887 50.242 30.348s11.443 14.59 23.431 25.144c4.1077 3.9982 7.7691 6.8726 10.757 10.379 3.3334 4.3487 8.5284 9.0856 12.143 13.048 7.3708 8.2787 9.1301 11.977 13.379 18.48-0.6399 2.4301 10.379 16.353 9.3351 15.666 2.9118 3.5215 5.1481 5.9772 8.2331 9.4476 9.2765 18.142 18.911 38.435 18.286 59.083 0.0194 10.012-1.6542 13.972-0.10304 24.143 1.5511 10.172 1.6004 16.182 1.3505 31.993-4.5486 12.261-16.519 24.041-25.142 34.904-8.6678 7.1106-6.5067 21.902-11.176 30.371 1.3354 3.307-2.4498 8.1659-4.231 14.699-2.0828 4.6189-6.1978 11.084-8.2119 14.288-5.855 8.2785-16.002 13.734-18.091 23.413 10.104 4.3901 17.123 13.775 29.48 10.411zm-61.197-334.69c0.96425-1.0764 2.3986 0.9514 0 0zm-464.17 314.34c-0.66356-0.90834-0.66356 0.90834 0 0zm-31.017-23.455c-0.99686-11.896-10.343-24.13-9.1773-35.089-0.48783-14.599 1.3592-28.542-3.2975-41.412 0.15632-14.655 8.0206-28.798 1.8383-43.73-3.7626-13.311-4.5964-27.332-6.1945-41.336 1.67-32.274 4.3086-37.094-5.081-0.6012-8.2025 34.036-2.4932 68.672-6.7418 103.28-0.0126 20.339 0.80654 40.359-0.85771 60.625 10.593-2.1689 16.912-6.882 29.512-1.7329zm547.82-26.866c-1.0379-0.44797-1.0143 0.82517 0 0zm65.523-119.17c-0.49766 0.10444 0.36772 1.1108 0 0zm-566.41-33.38c-0.24956-7.6933 6.4489-15.821 6.9036-22.028-9.3221-9.6564-26.772-6.7636-35.915-8.1723-12.768 7.6671-13.812 26.892-8.1684 39.098 5.2675 7.3197 17.678 9.3824 24.767 9.7899 7.975 8.019 2.7019-9.8978 12.412-18.687zm536.67 2.1766c-0.29965-0.89441-0.6909 0.83791 0 0zm1.987-21.415c-0.45337 0.25138 0.41892 1.3921 0 0zm-69.556-7.6676c8.8761-10.12 19.267-24.319 15.448-38.477-11.614-0.56241-33.444-6.5533-39.675 7.1368 7.4384 15.402 17.551 15.478 24.227 31.341zm66.273-0.6142c-0.66346-0.90844-0.66346 0.90844 0 0zm-568.62-38.714c2.5348-2.9145 3.1722-2.0012 6.5712-6.548 7.6292-6.5544 16.814-8.6226 24.371-14.751 10.652-8.0563 23.956-7.8712 34.1-17.997 13.108-8.2435 22.398-16.673 35.22-25.163 13.345-8.6942 26.032-16.132 40.59-22.278 9.078-6.4391 32.271 0.78379 31.937 3.0584-6.407-7.8383-13.895-6.3608-21.895-7.097-8.9636 1.293-35.25-0.99533-43.846 5.0737-25.105 6.7897-49.795 15.971-73.533 27.675-12.234 7.2856-22.579 17.177-30.667 28.973-7.2417 11.44-12.665 24.593-17.269 37.881-14.355 24.958 7.8932-2.102 14.421-8.8276zm20.441-15.405c0.63833-0.90177 0.31594 0.9266 0 0zm513.87 24.231c-0.49768 0.10441 0.36784 1.1107 0 0zm6.565-21.576c-0.64466-1.3341-0.64423 1.3343 0 0zm-453.07-2.2827c-0.91141 0.0327 0.26009 1.0547 0 0zm346.49-5.4311c-0.66346-0.90844-0.66346 0.90844 0 0zm100.61 0.1084c-0.71786-1.5194-1.3329 0.31252 0 0zm-28.524-28.433c-0.66364-0.90855-0.66364 0.90855 0 0zm-22.383-26.857c-0.49768 0.10441 0.36784 1.1107 0 0zm-201.4-24.986c-0.66353-0.93825-1.0008 0.90773 0 0zm25.602-3.6929c-1.0302-0.5376-0.24039 0.57301 0 0zm129.21-7.0248c-1.716-0.74495-1.7116 0.42833 0 0zm-282.39 489.83c0.64407-1.3342 0.6445 1.334 0 0zm-88.944-16.664c1.0145-0.82516 1.0376 0.44782 0 0zm-51.842-81.226c0.37247-0.67522 0.1153 1.0914 0 0zm503.3-35.257c1.0129-0.92478 1.0129 0.92478 0 0zm-507.71-6.9756c0.37246-0.67522 0.1153 1.0914 0 0zm598.49-108.96c0.24732-0.83352 1.6532 1.0007 0 0zm-97.388-89.164c0.63818-0.90174 0.31609 0.92649 0 0zm-259.44-165.39c0.66346-0.90844 0.66346 0.90844 0 0zm9.2703-1.1799c1.4285-0.41246 0.26047 0.44326 0 0zm10.632-0.5058c1.4285-0.41242 0.26048 0.44322 0 0zm17.957-0.8019c0.96736-0.76284 0.64679 0.7865 0 0z" fill="#140000" stroke="#000" stroke-width="5"/>
 </g>
</svg>
